<svg xmlns="http://www.w3.org/2000/svg" xmlns:xlink="http://www.w3.org/1999/xlink" width="250" zoomAndPan="magnify" viewBox="0 0 187.5 149.999998" height="200" preserveAspectRatio="xMidYMid meet" version="1.0"><defs><clipPath id="fdd7c18d09"><path d="M 33.035156 1 L 141 1 L 141 149.800781 L 33.035156 149.800781 Z M 33.035156 1 " clipRule="nonzero"/></clipPath></defs><g clipPath="url(#fdd7c18d09)"><path fill="#1f7ea1" d="M 87.578125 150.066406 C 68.382812 150.066406 59.148438 133.664062 50.367188 122.289062 C 41.589844 110.917969 40.492188 94.925781 40.492188 94.925781 C 40.492188 94.925781 39.617188 96.566406 38.242188 95.308594 C 36.871094 94.050781 37.3125 90.660156 36.324219 87.050781 C 35.335938 83.441406 33.03125 77.566406 33.691406 71.988281 C 34.347656 66.410156 38.464844 67.558594 38.464844 67.558594 C 36.488281 54.929688 39.617188 36.726562 39.617188 36.726562 C 43.894531 0.3125 87.578125 1.953125 87.578125 1.953125 L 86.492188 1.953125 C 86.492188 1.953125 130.175781 0.3125 134.457031 36.726562 C 134.457031 36.726562 137.582031 54.929688 135.609375 67.558594 C 135.609375 67.558594 139.722656 66.410156 140.382812 71.988281 C 141.039062 77.566406 138.734375 83.441406 137.75 87.050781 C 136.761719 90.660156 137.199219 94.050781 135.828125 95.308594 C 134.457031 96.566406 133.578125 94.925781 133.578125 94.925781 C 133.578125 94.925781 132.480469 110.917969 123.703125 122.289062 C 114.925781 133.664062 105.6875 150.066406 86.492188 150.066406 L 87.578125 150.066406 " fill-opacity="1" fillRule="nonzero"/></g><path stroke-linecap="butt" transform="matrix(0.0366848, 0, 0, -0.0365574, 9.043864, 153.724763)" fill="none" stroke-linejoin="miter" d="M 2125.133049 3748.443555 L 2043.994158 3784.345997 L 1927.609896 3955.203155 L 1685.151557 3980.527199 L 1202.57747 3694.803597 L 981.202464 3287.161286 L 985.142279 3179.133402 L 958.521908 2903.988198 L 1134.855246 2524.234391 L 1467.077477 2403.063649 L 1887.146932 2585.033467 L 1942.410822 2533.103149 L 2062.628418 2522.204193 L 2126.197864 2561.846473 L 2126.730272 2561.846473 L 2190.299718 2522.204193 L 2310.517313 2533.103149 L 2365.781204 2585.033467 L 2785.95714 2403.063649 L 3118.179371 2524.234391 L 3294.406228 2903.988198 L 3267.785857 3179.133402 L 3271.725671 3287.161286 L 3050.350666 3694.803597 L 2567.776579 3980.527199 L 2325.31824 3955.203155 L 2209.040459 3784.345997 L 2127.901568 3748.443555 Z M 2125.133049 3748.443555 " stroke="#92dcef" stroke-width="10" stroke-opacity="1" stroke-miterlimit="10"/><path stroke-linecap="butt" transform="matrix(0.0366848, 0, 0, -0.0365574, 9.043864, 153.724763)" fill="none" stroke-linejoin="miter" d="M 1739.883039 2521.563078 L 2000.549713 2315.124036 L 2064.119159 2100.671056 L 2064.119159 1950.009022 L 2188.063607 1950.009022 L 2188.063607 2100.671056 L 2251.526571 2315.124036 L 2512.193244 2521.563078 " stroke="#92dcef" stroke-width="10" stroke-opacity="1" stroke-miterlimit="10"/><path fill="#92dcef" d="M 103.683594 27.675781 L 70.410156 27.675781 L 70.410156 47.214844 L 103.683594 47.214844 L 103.683594 27.675781 " fill-opacity="1" fillRule="nonzero"/><path stroke-linecap="butt" transform="matrix(0.0366848, 0, 0, -0.0365574, 9.043864, 153.724763)" fill="none" stroke-linejoin="miter" d="M 1989.688601 3447.974308 L 1989.688601 3584.745516 " stroke="#92dcef" stroke-width="10" stroke-opacity="1" stroke-miterlimit="10"/><path stroke-linecap="butt" transform="matrix(0.0366848, 0, 0, -0.0365574, 9.043864, 153.724763)" fill="none" stroke-linejoin="miter" d="M 1927.609896 3447.974308 L 1927.609896 3584.745516 " stroke="#92dcef" stroke-width="10" stroke-opacity="1" stroke-miterlimit="10"/><path stroke-linecap="butt" transform="matrix(0.0366848, 0, 0, -0.0365574, 9.043864, 153.724763)" fill="none" stroke-linejoin="miter" d="M 1806.753411 3447.974308 L 1806.753411 3584.745516 " stroke="#92dcef" stroke-width="10" stroke-opacity="1" stroke-miterlimit="10"/><path stroke-linecap="butt" transform="matrix(0.0366848, 0, 0, -0.0365574, 9.043864, 153.724763)" fill="none" stroke-linejoin="miter" d="M 1744.568225 3447.974308 L 1744.568225 3670.441226 " stroke="#92dcef" stroke-width="10" stroke-opacity="1" stroke-miterlimit="10"/><path stroke-linecap="butt" transform="matrix(0.0366848, 0, 0, -0.0365574, 9.043864, 153.724763)" fill="none" stroke-linejoin="miter" d="M 1864.572857 3447.974308 L 1864.572857 3645.437739 L 1686.748779 3823.24031 L 1686.748779 3980.527199 " stroke="#92dcef" stroke-width="10" stroke-opacity="1" stroke-miterlimit="10"/><path stroke-linecap="butt" transform="matrix(0.0366848, 0, 0, -0.0365574, 9.043864, 153.724763)" fill="none" stroke-linejoin="miter" d="M 2127.901568 3748.443555 L 2127.901568 3447.974308 " stroke="#92dcef" stroke-width="10" stroke-opacity="1" stroke-miterlimit="10"/><path stroke-linecap="butt" transform="matrix(0.0366848, 0, 0, -0.0365574, 9.043864, 153.724763)" fill="none" stroke-linejoin="miter" d="M 2043.994158 3784.345997 L 2043.994158 3674.181063 L 2081.688604 3636.462129 L 2081.688604 3447.974308 " stroke="#92dcef" stroke-width="10" stroke-opacity="1" stroke-miterlimit="10"/><path stroke-linecap="butt" transform="matrix(0.0366848, 0, 0, -0.0365574, 9.043864, 153.724763)" fill="none" stroke-linejoin="miter" d="M 1927.609896 3955.203155 L 1927.609896 3693.948777 L 2036.433973 3585.172926 L 2036.433973 3447.974308 " stroke="#92dcef" stroke-width="10" stroke-opacity="1" stroke-miterlimit="10"/><path stroke-linecap="butt" transform="matrix(0.0366848, 0, 0, -0.0365574, 9.043864, 153.724763)" fill="none" stroke-linejoin="miter" d="M 2259.406201 3447.974308 L 2259.406201 3584.745516 " stroke="#92dcef" stroke-width="10" stroke-opacity="1" stroke-miterlimit="10"/><path stroke-linecap="butt" transform="matrix(0.0366848, 0, 0, -0.0365574, 9.043864, 153.724763)" fill="none" stroke-linejoin="miter" d="M 2321.591388 3447.974308 L 2321.591388 3584.745516 " stroke="#92dcef" stroke-width="10" stroke-opacity="1" stroke-miterlimit="10"/><path stroke-linecap="butt" transform="matrix(0.0366848, 0, 0, -0.0365574, 9.043864, 153.724763)" fill="none" stroke-linejoin="miter" d="M 2442.447872 3447.974308 L 2442.447872 3584.745516 " stroke="#92dcef" stroke-width="10" stroke-opacity="1" stroke-miterlimit="10"/><path stroke-linecap="butt" transform="matrix(0.0366848, 0, 0, -0.0365574, 9.043864, 153.724763)" fill="none" stroke-linejoin="miter" d="M 2504.526578 3447.974308 L 2504.526578 3670.441226 " stroke="#92dcef" stroke-width="10" stroke-opacity="1" stroke-miterlimit="10"/><path stroke-linecap="butt" transform="matrix(0.0366848, 0, 0, -0.0365574, 9.043864, 153.724763)" fill="none" stroke-linejoin="miter" d="M 2384.628426 3447.974308 L 2384.628426 3645.437739 L 2562.452505 3823.24031 L 2562.452505 3980.527199 " stroke="#92dcef" stroke-width="10" stroke-opacity="1" stroke-miterlimit="10"/><path stroke-linecap="butt" transform="matrix(0.0366848, 0, 0, -0.0365574, 9.043864, 153.724763)" fill="none" stroke-linejoin="miter" d="M 2205.313607 3784.345997 L 2205.313607 3674.181063 L 2167.51268 3636.462129 L 2167.51268 3447.974308 " stroke="#92dcef" stroke-width="10" stroke-opacity="1" stroke-miterlimit="10"/><path stroke-linecap="butt" transform="matrix(0.0366848, 0, 0, -0.0365574, 9.043864, 153.724763)" fill="none" stroke-linejoin="miter" d="M 2321.591388 3955.203155 L 2321.591388 3693.948777 L 2212.767311 3585.172926 L 2212.767311 3447.974308 " stroke="#92dcef" stroke-width="10" stroke-opacity="1" stroke-miterlimit="10"/><path stroke-linecap="butt" transform="matrix(0.0366848, 0, 0, -0.0365574, 9.043864, 153.724763)" fill="none" stroke-linejoin="miter" d="M 3047.475666 3696.513237 L 2926.832144 3575.876758 L 2926.832144 3418.589868 L 2579.808987 3418.589868 " stroke="#92dcef" stroke-width="10" stroke-opacity="1" stroke-miterlimit="10"/><path stroke-linecap="butt" transform="matrix(0.0366848, 0, 0, -0.0365574, 9.043864, 153.724763)" fill="none" stroke-linejoin="miter" d="M 2579.808987 3373.925521 L 2740.596028 3373.925521 " stroke="#92dcef" stroke-width="10" stroke-opacity="1" stroke-miterlimit="10"/><path stroke-linecap="butt" transform="matrix(0.0366848, 0, 0, -0.0365574, 9.043864, 153.724763)" fill="none" stroke-linejoin="miter" d="M 3271.725671 3287.161286 L 2579.808987 3287.161286 " stroke="#92dcef" stroke-width="10" stroke-opacity="1" stroke-miterlimit="10"/><path stroke-linecap="butt" transform="matrix(0.0366848, 0, 0, -0.0365574, 9.043864, 153.724763)" fill="none" stroke-linejoin="miter" d="M 2579.808987 3326.803565 L 2740.596028 3326.803565 " stroke="#92dcef" stroke-width="10" stroke-opacity="1" stroke-miterlimit="10"/><path stroke-linecap="butt" transform="matrix(0.0366848, 0, 0, -0.0365574, 9.043864, 153.724763)" fill="none" stroke-linejoin="miter" d="M 2579.808987 3231.277425 L 2740.596028 3231.277425 " stroke="#92dcef" stroke-width="10" stroke-opacity="1" stroke-miterlimit="10"/><path stroke-linecap="butt" transform="matrix(0.0366848, 0, 0, -0.0365574, 9.043864, 153.724763)" fill="none" stroke-linejoin="miter" d="M 3267.99882 3185.651405 L 2579.808987 3185.651405 " stroke="#92dcef" stroke-width="10" stroke-opacity="1" stroke-miterlimit="10"/><path stroke-linecap="butt" transform="matrix(0.0366848, 0, 0, -0.0365574, 9.043864, 153.724763)" fill="none" stroke-linejoin="miter" d="M 3294.406228 2903.988198 L 3085.170111 3113.312258 L 2579.808987 3113.312258 " stroke="#92dcef" stroke-width="10" stroke-opacity="1" stroke-miterlimit="10"/><path stroke-linecap="butt" transform="matrix(0.0366848, 0, 0, -0.0365574, 9.043864, 153.724763)" fill="none" stroke-linejoin="miter" d="M 3118.179371 2524.234391 L 2924.702514 2717.637427 L 2924.702514 2961.261142 L 2579.808987 2961.261142 " stroke="#92dcef" stroke-width="10" stroke-opacity="1" stroke-miterlimit="10"/><path stroke-linecap="butt" transform="matrix(0.0366848, 0, 0, -0.0365574, 9.043864, 153.724763)" fill="none" stroke-linejoin="miter" d="M 2579.808987 3061.38194 L 3060.572888 3061.38194 " stroke="#92dcef" stroke-width="10" stroke-opacity="1" stroke-miterlimit="10"/><path stroke-linecap="butt" transform="matrix(0.0366848, 0, 0, -0.0365574, 9.043864, 153.724763)" fill="none" stroke-linejoin="miter" d="M 2579.808987 3012.870902 L 2975.707145 3012.870902 " stroke="#92dcef" stroke-width="10" stroke-opacity="1" stroke-miterlimit="10"/><path stroke-linecap="butt" transform="matrix(0.0366848, 0, 0, -0.0365574, 9.043864, 153.724763)" fill="none" stroke-linejoin="miter" d="M 1205.558952 3696.513237 L 1326.202473 3575.876758 L 1326.202473 3418.589868 L 1673.22563 3418.589868 " stroke="#92dcef" stroke-width="10" stroke-opacity="1" stroke-miterlimit="10"/><path stroke-linecap="butt" transform="matrix(0.0366848, 0, 0, -0.0365574, 9.043864, 153.724763)" fill="none" stroke-linejoin="miter" d="M 1673.22563 3373.925521 L 1512.438589 3373.925521 " stroke="#92dcef" stroke-width="10" stroke-opacity="1" stroke-miterlimit="10"/><path stroke-linecap="butt" transform="matrix(0.0366848, 0, 0, -0.0365574, 9.043864, 153.724763)" fill="none" stroke-linejoin="miter" d="M 981.202464 3287.161286 L 1673.22563 3287.161286 " stroke="#92dcef" stroke-width="10" stroke-opacity="1" stroke-miterlimit="10"/><path stroke-linecap="butt" transform="matrix(0.0366848, 0, 0, -0.0365574, 9.043864, 153.724763)" fill="none" stroke-linejoin="miter" d="M 1673.22563 3326.803565 L 1512.438589 3326.803565 " stroke="#92dcef" stroke-width="10" stroke-opacity="1" stroke-miterlimit="10"/><path stroke-linecap="butt" transform="matrix(0.0366848, 0, 0, -0.0365574, 9.043864, 153.724763)" fill="none" stroke-linejoin="miter" d="M 1673.22563 3231.277425 L 1512.438589 3231.277425 " stroke="#92dcef" stroke-width="10" stroke-opacity="1" stroke-miterlimit="10"/><path stroke-linecap="butt" transform="matrix(0.0366848, 0, 0, -0.0365574, 9.043864, 153.724763)" fill="none" stroke-linejoin="miter" d="M 984.929316 3185.651405 L 1673.22563 3185.651405 " stroke="#92dcef" stroke-width="10" stroke-opacity="1" stroke-miterlimit="10"/><path stroke-linecap="butt" transform="matrix(0.0366848, 0, 0, -0.0365574, 9.043864, 153.724763)" fill="none" stroke-linejoin="miter" d="M 958.521908 2903.988198 L 1167.864506 3113.312258 L 1673.22563 3113.312258 " stroke="#92dcef" stroke-width="10" stroke-opacity="1" stroke-miterlimit="10"/><path stroke-linecap="butt" transform="matrix(0.0366848, 0, 0, -0.0365574, 9.043864, 153.724763)" fill="none" stroke-linejoin="miter" d="M 1134.855246 2524.234391 L 1328.332103 2717.637427 L 1328.332103 2961.261142 L 1673.22563 2961.261142 " stroke="#92dcef" stroke-width="10" stroke-opacity="1" stroke-miterlimit="10"/><path stroke-linecap="butt" transform="matrix(0.0366848, 0, 0, -0.0365574, 9.043864, 153.724763)" fill="none" stroke-linejoin="miter" d="M 1673.22563 3061.38194 L 1192.355248 3061.38194 " stroke="#92dcef" stroke-width="10" stroke-opacity="1" stroke-miterlimit="10"/><path stroke-linecap="butt" transform="matrix(0.0366848, 0, 0, -0.0365574, 9.043864, 153.724763)" fill="none" stroke-linejoin="miter" d="M 1673.22563 3012.870902 L 1277.327472 3012.870902 " stroke="#92dcef" stroke-width="10" stroke-opacity="1" stroke-miterlimit="10"/><path stroke-linecap="butt" transform="matrix(0.0366848, 0, 0, -0.0365574, 9.043864, 153.724763)" fill="none" stroke-linejoin="miter" d="M 2126.091383 2913.498071 L 2126.091383 2561.846473 " stroke="#92dcef" stroke-width="10" stroke-opacity="1" stroke-miterlimit="10"/><path stroke-linecap="butt" transform="matrix(0.0366848, 0, 0, -0.0365574, 9.043864, 153.724763)" fill="none" stroke-linejoin="miter" d="M 2190.299718 2522.204193 L 2190.299718 2913.498071 " stroke="#92dcef" stroke-width="10" stroke-opacity="1" stroke-miterlimit="10"/><path stroke-linecap="butt" transform="matrix(0.0366848, 0, 0, -0.0365574, 9.043864, 153.724763)" fill="none" stroke-linejoin="miter" d="M 2365.781204 2585.033467 L 2438.72102 2657.906876 L 2438.72102 2913.498071 " stroke="#92dcef" stroke-width="10" stroke-opacity="1" stroke-miterlimit="10"/><path stroke-linecap="butt" transform="matrix(0.0366848, 0, 0, -0.0365574, 9.043864, 153.724763)" fill="none" stroke-linejoin="miter" d="M 2270.373794 2913.498071 L 2270.373794 2529.897574 " stroke="#92dcef" stroke-width="10" stroke-opacity="1" stroke-miterlimit="10"/><path stroke-linecap="butt" transform="matrix(0.0366848, 0, 0, -0.0365574, 9.043864, 153.724763)" fill="none" stroke-linejoin="miter" d="M 2354.281203 2913.498071 L 2354.281203 2636.215817 " stroke="#92dcef" stroke-width="10" stroke-opacity="1" stroke-miterlimit="10"/><path stroke-linecap="butt" transform="matrix(0.0366848, 0, 0, -0.0365574, 9.043864, 153.724763)" fill="none" stroke-linejoin="miter" d="M 2516.87843 2519.639733 L 2516.87843 2913.498071 " stroke="#92dcef" stroke-width="10" stroke-opacity="1" stroke-miterlimit="10"/><path stroke-linecap="butt" transform="matrix(0.0366848, 0, 0, -0.0365574, 9.043864, 153.724763)" fill="none" stroke-linejoin="miter" d="M 2059.966381 2522.204193 L 2059.966381 2913.498071 " stroke="#92dcef" stroke-width="10" stroke-opacity="1" stroke-miterlimit="10"/><path stroke-linecap="butt" transform="matrix(0.0366848, 0, 0, -0.0365574, 9.043864, 153.724763)" fill="none" stroke-linejoin="miter" d="M 1884.484895 2585.033467 L 1811.65156 2657.906876 L 1811.65156 2913.498071 " stroke="#92dcef" stroke-width="10" stroke-opacity="1" stroke-miterlimit="10"/><path stroke-linecap="butt" transform="matrix(0.0366848, 0, 0, -0.0365574, 9.043864, 153.724763)" fill="none" stroke-linejoin="miter" d="M 1979.998786 2913.498071 L 1979.998786 2529.897574 " stroke="#92dcef" stroke-width="10" stroke-opacity="1" stroke-miterlimit="10"/><path stroke-linecap="butt" transform="matrix(0.0366848, 0, 0, -0.0365574, 9.043864, 153.724763)" fill="none" stroke-linejoin="miter" d="M 1896.091377 2913.498071 L 1896.091377 2636.215817 " stroke="#92dcef" stroke-width="10" stroke-opacity="1" stroke-miterlimit="10"/><path stroke-linecap="butt" transform="matrix(0.0366848, 0, 0, -0.0365574, 9.043864, 153.724763)" fill="none" stroke-linejoin="miter" d="M 1733.49415 2519.639733 L 1733.49415 2913.498071 " stroke="#92dcef" stroke-width="10" stroke-opacity="1" stroke-miterlimit="10"/><path fill="#92dcef" d="M 103.917969 8.339844 C 103.917969 8.820312 103.527344 9.210938 103.046875 9.210938 C 102.566406 9.210938 102.175781 8.820312 102.175781 8.339844 C 102.175781 7.863281 102.566406 7.472656 103.046875 7.472656 C 103.527344 7.472656 103.917969 7.863281 103.917969 8.339844 " fill-opacity="1" fillRule="nonzero"/><path fill="#92dcef" d="M 95.082031 9.210938 C 95.082031 9.691406 94.691406 10.078125 94.210938 10.078125 C 93.726562 10.078125 93.335938 9.691406 93.335938 9.210938 C 93.335938 8.730469 93.726562 8.339844 94.210938 8.339844 C 94.691406 8.339844 95.082031 8.730469 95.082031 9.210938 " fill-opacity="1" fillRule="nonzero"/><path fill="#92dcef" d="M 90.816406 15.378906 C 90.816406 15.855469 90.425781 16.246094 89.945312 16.246094 C 89.460938 16.246094 89.070312 15.855469 89.070312 15.378906 C 89.070312 14.898438 89.460938 14.507812 89.945312 14.507812 C 90.425781 14.507812 90.816406 14.898438 90.816406 15.378906 " fill-opacity="1" fillRule="nonzero"/><path fill="#92dcef" d="M 87.917969 16.515625 C 87.917969 16.996094 87.527344 17.382812 87.046875 17.382812 C 86.566406 17.382812 86.175781 16.996094 86.175781 16.515625 C 86.175781 16.035156 86.566406 15.644531 87.046875 15.644531 C 87.527344 15.644531 87.917969 16.035156 87.917969 16.515625 " fill-opacity="1" fillRule="nonzero"/><path fill="#92dcef" d="M 121.710938 18.589844 C 121.710938 19.070312 121.320312 19.457031 120.839844 19.457031 C 120.359375 19.457031 119.96875 19.070312 119.96875 18.589844 C 119.96875 18.109375 120.359375 17.71875 120.839844 17.71875 C 121.320312 17.71875 121.710938 18.109375 121.710938 18.589844 " fill-opacity="1" fillRule="nonzero"/><path fill="#92dcef" d="M 129.9375 33.554688 C 129.9375 34.035156 129.550781 34.421875 129.066406 34.421875 C 128.585938 34.421875 128.195312 34.035156 128.195312 33.554688 C 128.195312 33.074219 128.585938 32.683594 129.066406 32.683594 C 129.550781 32.683594 129.9375 33.074219 129.9375 33.554688 " fill-opacity="1" fillRule="nonzero"/><path fill="#92dcef" d="M 129.800781 37.265625 C 129.800781 37.746094 129.414062 38.136719 128.929688 38.136719 C 128.449219 38.136719 128.058594 37.746094 128.058594 37.265625 C 128.058594 36.785156 128.449219 36.398438 128.929688 36.398438 C 129.414062 36.398438 129.800781 36.785156 129.800781 37.265625 " fill-opacity="1" fillRule="nonzero"/><path fill="#92dcef" d="M 130.8125 47.5625 C 130.8125 48.039062 130.421875 48.429688 129.941406 48.429688 C 129.457031 48.429688 129.066406 48.039062 129.066406 47.5625 C 129.066406 47.082031 129.457031 46.691406 129.941406 46.691406 C 130.421875 46.691406 130.8125 47.082031 130.8125 47.5625 " fill-opacity="1" fillRule="nonzero"/><path fill="#92dcef" d="M 124.304688 61.613281 C 124.304688 62.09375 123.914062 62.480469 123.433594 62.480469 C 122.953125 62.480469 122.5625 62.09375 122.5625 61.613281 C 122.5625 61.132812 122.953125 60.746094 123.433594 60.746094 C 123.914062 60.746094 124.304688 61.132812 124.304688 61.613281 " fill-opacity="1" fillRule="nonzero"/><path fill="#92dcef" d="M 112.101562 65.875 C 112.101562 66.355469 111.710938 66.742188 111.230469 66.742188 C 110.75 66.742188 110.355469 66.355469 110.355469 65.875 C 110.355469 65.394531 110.75 65.003906 111.230469 65.003906 C 111.710938 65.003906 112.101562 65.394531 112.101562 65.875 " fill-opacity="1" fillRule="nonzero"/><path fill="#92dcef" d="M 102.246094 61.613281 C 102.246094 62.09375 101.855469 62.480469 101.375 62.480469 C 100.890625 62.480469 100.5 62.09375 100.5 61.613281 C 100.5 61.132812 100.890625 60.746094 101.375 60.746094 C 101.855469 60.746094 102.246094 61.132812 102.246094 61.613281 " fill-opacity="1" fillRule="nonzero"/><path fill="#92dcef" d="M 96.703125 59.222656 C 96.703125 59.703125 96.3125 60.09375 95.832031 60.09375 C 95.351562 60.09375 94.960938 59.703125 94.960938 59.222656 C 94.960938 58.742188 95.351562 58.355469 95.832031 58.355469 C 96.3125 58.355469 96.703125 58.742188 96.703125 59.222656 " fill-opacity="1" fillRule="nonzero"/><path fill="#92dcef" d="M 93.203125 61.445312 C 93.203125 61.925781 92.8125 62.316406 92.332031 62.316406 C 91.851562 62.316406 91.457031 61.925781 91.457031 61.445312 C 91.457031 60.96875 91.851562 60.578125 92.332031 60.578125 C 92.8125 60.578125 93.203125 60.96875 93.203125 61.445312 " fill-opacity="1" fillRule="nonzero"/><path fill="#92dcef" d="M 90.269531 61.542969 C 90.269531 62.023438 89.878906 62.410156 89.394531 62.410156 C 88.914062 62.410156 88.523438 62.023438 88.523438 61.542969 C 88.523438 61.0625 88.914062 60.671875 89.394531 60.671875 C 89.878906 60.671875 90.269531 61.0625 90.269531 61.542969 " fill-opacity="1" fillRule="nonzero"/><path fill="#92dcef" d="M 70.207031 8.339844 C 70.207031 8.820312 70.601562 9.210938 71.082031 9.210938 C 71.5625 9.210938 71.953125 8.820312 71.953125 8.339844 C 71.953125 7.863281 71.5625 7.472656 71.082031 7.472656 C 70.601562 7.472656 70.207031 7.863281 70.207031 8.339844 " fill-opacity="1" fillRule="nonzero"/><path fill="#92dcef" d="M 79.046875 9.210938 C 79.046875 9.691406 79.4375 10.078125 79.917969 10.078125 C 80.398438 10.078125 80.789062 9.691406 80.789062 9.210938 C 80.789062 8.730469 80.398438 8.339844 79.917969 8.339844 C 79.4375 8.339844 79.046875 8.730469 79.046875 9.210938 " fill-opacity="1" fillRule="nonzero"/><path fill="#92dcef" d="M 83.3125 15.378906 C 83.3125 15.855469 83.703125 16.246094 84.183594 16.246094 C 84.667969 16.246094 85.054688 15.855469 85.054688 15.378906 C 85.054688 14.898438 84.667969 14.507812 84.183594 14.507812 C 83.703125 14.507812 83.3125 14.898438 83.3125 15.378906 " fill-opacity="1" fillRule="nonzero"/><path fill="#92dcef" d="M 52.417969 18.589844 C 52.417969 19.070312 52.804688 19.457031 53.289062 19.457031 C 53.769531 19.457031 54.160156 19.070312 54.160156 18.589844 C 54.160156 18.109375 53.769531 17.71875 53.289062 17.71875 C 52.804688 17.71875 52.417969 18.109375 52.417969 18.589844 " fill-opacity="1" fillRule="nonzero"/><path fill="#92dcef" d="M 44.1875 33.554688 C 44.1875 34.035156 44.578125 34.421875 45.058594 34.421875 C 45.539062 34.421875 45.933594 34.035156 45.933594 33.554688 C 45.933594 33.074219 45.539062 32.683594 45.058594 32.683594 C 44.578125 32.683594 44.1875 33.074219 44.1875 33.554688 " fill-opacity="1" fillRule="nonzero"/><path fill="#92dcef" d="M 44.324219 37.265625 C 44.324219 37.746094 44.714844 38.136719 45.195312 38.136719 C 45.679688 38.136719 46.066406 37.746094 46.066406 37.265625 C 46.066406 36.785156 45.679688 36.398438 45.195312 36.398438 C 44.714844 36.398438 44.324219 36.785156 44.324219 37.265625 " fill-opacity="1" fillRule="nonzero"/><path fill="#92dcef" d="M 43.316406 47.5625 C 43.316406 48.039062 43.707031 48.429688 44.1875 48.429688 C 44.667969 48.429688 45.058594 48.039062 45.058594 47.5625 C 45.058594 47.082031 44.667969 46.691406 44.1875 46.691406 C 43.707031 46.691406 43.316406 47.082031 43.316406 47.5625 " fill-opacity="1" fillRule="nonzero"/><path fill="#92dcef" d="M 49.824219 61.613281 C 49.824219 62.09375 50.210938 62.480469 50.695312 62.480469 C 51.175781 62.480469 51.566406 62.09375 51.566406 61.613281 C 51.566406 61.132812 51.175781 60.746094 50.695312 60.746094 C 50.210938 60.746094 49.824219 61.132812 49.824219 61.613281 " fill-opacity="1" fillRule="nonzero"/><path fill="#92dcef" d="M 62.027344 65.875 C 62.027344 66.355469 62.417969 66.742188 62.898438 66.742188 C 63.378906 66.742188 63.769531 66.355469 63.769531 65.875 C 63.769531 65.394531 63.378906 65.003906 62.898438 65.003906 C 62.417969 65.003906 62.027344 65.394531 62.027344 65.875 " fill-opacity="1" fillRule="nonzero"/><path fill="#92dcef" d="M 71.882812 61.613281 C 71.882812 62.09375 72.273438 62.480469 72.753906 62.480469 C 73.238281 62.480469 73.625 62.09375 73.625 61.613281 C 73.625 61.132812 73.238281 60.746094 72.753906 60.746094 C 72.273438 60.746094 71.882812 61.132812 71.882812 61.613281 " fill-opacity="1" fillRule="nonzero"/><path fill="#92dcef" d="M 77.421875 59.222656 C 77.421875 59.703125 77.8125 60.09375 78.296875 60.09375 C 78.777344 60.09375 79.167969 59.703125 79.167969 59.222656 C 79.167969 58.742188 78.777344 58.355469 78.296875 58.355469 C 77.8125 58.355469 77.421875 58.742188 77.421875 59.222656 " fill-opacity="1" fillRule="nonzero"/><path fill="#92dcef" d="M 80.925781 61.445312 C 80.925781 61.925781 81.316406 62.316406 81.796875 62.316406 C 82.277344 62.316406 82.667969 61.925781 82.667969 61.445312 C 82.667969 60.96875 82.277344 60.578125 81.796875 60.578125 C 81.316406 60.578125 80.925781 60.96875 80.925781 61.445312 " fill-opacity="1" fillRule="nonzero"/><path fill="#92dcef" d="M 83.859375 61.542969 C 83.859375 62.023438 84.25 62.410156 84.730469 62.410156 C 85.214844 62.410156 85.601562 62.023438 85.601562 61.542969 C 85.601562 61.0625 85.214844 60.671875 84.730469 60.671875 C 84.25 60.671875 83.859375 61.0625 83.859375 61.542969 " fill-opacity="1" fillRule="nonzero"/><path fill="#92dcef" d="M 87.910156 60.371094 C 87.910156 60.851562 87.519531 61.238281 87.039062 61.238281 C 86.554688 61.238281 86.167969 60.851562 86.167969 60.371094 C 86.167969 59.890625 86.554688 59.503906 87.039062 59.503906 C 87.519531 59.503906 87.910156 59.890625 87.910156 60.371094 " fill-opacity="1" fillRule="nonzero"/><path stroke-linecap="butt" transform="matrix(0.0366848, 0, 0, -0.0365574, 9.043864, 153.724763)" fill="none" stroke-linejoin="miter" d="M 2188.063607 1950.009022 L 2188.063607 1410.19016 " stroke="#92dcef" stroke-width="10" stroke-opacity="1" stroke-miterlimit="10"/><path stroke-linecap="butt" transform="matrix(0.0366848, 0, 0, -0.0365574, 9.043864, 153.724763)" fill="none" stroke-linejoin="miter" d="M 2156.75805 1950.009022 L 2156.75805 1220.206404 " stroke="#92dcef" stroke-width="10" stroke-opacity="1" stroke-miterlimit="10"/><path stroke-linecap="butt" transform="matrix(0.0366848, 0, 0, -0.0365574, 9.043864, 153.724763)" fill="none" stroke-linejoin="miter" d="M 2095.531197 1950.009022 L 2095.531197 1220.206404 " stroke="#92dcef" stroke-width="10" stroke-opacity="1" stroke-miterlimit="10"/><path stroke-linecap="butt" transform="matrix(0.0366848, 0, 0, -0.0365574, 9.043864, 153.724763)" fill="none" stroke-linejoin="miter" d="M 2064.22564 1950.009022 L 2064.22564 1410.19016 " stroke="#92dcef" stroke-width="10" stroke-opacity="1" stroke-miterlimit="10"/><path stroke-linecap="butt" transform="matrix(0.0366848, 0, 0, -0.0365574, 9.043864, 153.724763)" fill="none" stroke-linejoin="miter" d="M 2126.091383 1950.009022 L 2126.091383 990.152958 " stroke="#92dcef" stroke-width="10" stroke-opacity="1" stroke-miterlimit="10"/><path fill="#92dcef" d="M 83.859375 102.675781 C 83.859375 103.152344 84.25 103.542969 84.730469 103.542969 C 85.214844 103.542969 85.601562 103.152344 85.601562 102.675781 C 85.601562 102.195312 85.214844 101.804688 84.730469 101.804688 C 84.25 101.804688 83.859375 102.195312 83.859375 102.675781 " fill-opacity="1" fillRule="nonzero"/><path fill="#92dcef" d="M 88.484375 102.675781 C 88.484375 103.152344 88.875 103.542969 89.355469 103.542969 C 89.835938 103.542969 90.226562 103.152344 90.226562 102.675781 C 90.226562 102.195312 89.835938 101.804688 89.355469 101.804688 C 88.875 101.804688 88.484375 102.195312 88.484375 102.675781 " fill-opacity="1" fillRule="nonzero"/><path fill="#92dcef" d="M 87.292969 109.835938 C 87.292969 110.3125 87.679688 110.703125 88.164062 110.703125 C 88.644531 110.703125 89.035156 110.3125 89.035156 109.835938 C 89.035156 109.351562 88.644531 108.964844 88.164062 108.964844 C 87.679688 108.964844 87.292969 109.351562 87.292969 109.835938 " fill-opacity="1" fillRule="nonzero"/><path fill="#92dcef" d="M 84.984375 109.835938 C 84.984375 110.3125 85.375 110.703125 85.855469 110.703125 C 86.335938 110.703125 86.726562 110.3125 86.726562 109.835938 C 86.726562 109.351562 86.335938 108.964844 85.855469 108.964844 C 85.375 108.964844 84.984375 109.351562 84.984375 109.835938 " fill-opacity="1" fillRule="nonzero"/><path fill="#92dcef" d="M 86.167969 118.316406 C 86.167969 118.796875 86.554688 119.1875 87.039062 119.1875 C 87.519531 119.1875 87.910156 118.796875 87.910156 118.316406 C 87.910156 117.839844 87.519531 117.449219 87.039062 117.449219 C 86.554688 117.449219 86.167969 117.839844 86.167969 118.316406 " fill-opacity="1" fillRule="nonzero"/></svg>