<svg xmlns="http://www.w3.org/2000/svg" xmlns:xlink="http://www.w3.org/1999/xlink" width="500" zoomAndPan="magnify" viewBox="0 0 375 374.999991" height="500" preserveAspectRatio="xMidYMid meet" version="1.0"><defs><g/><clipPath id="db89b57868"><path d="M 8.273438 42.96875 L 333.320312 42.96875 L 333.320312 258.21875 L 8.273438 258.21875 Z M 8.273438 42.96875 " clipRule="nonzero"/></clipPath><clipPath id="aaf2d44638"><path d="M 300.9375 211.925781 C 303.488281 210.347656 305.851562 208.671875 308.035156 206.785156 C 310.195312 204.878906 312.183594 202.855469 313.941406 200.71875 C 320.222656 193.011719 323.648438 181.847656 321.285156 172.019531 C 320.753906 169.667969 319.886719 167.398438 318.71875 165.285156 C 317.578125 163.167969 316.199219 161.167969 314.542969 159.394531 C 308.042969 152.144531 298.308594 148.035156 288.292969 147.363281 C 278.226562 146.542969 267.847656 148.859375 258.203125 153.101562 C 256.976562 153.570312 255.796875 154.207031 254.597656 154.761719 C 254.039062 155.035156 253.3125 155.367188 252.894531 155.589844 L 250.953125 156.621094 C 249.695312 157.316406 248.695312 157.878906 247.496094 158.59375 C 246.332031 159.28125 245.179688 159.996094 244.035156 160.726562 C 239.453125 163.644531 235.0625 166.921875 230.746094 170.378906 C 222.121094 177.308594 214.03125 185.222656 205.902344 193.4375 C 197.738281 201.632812 189.570312 210.195312 180.691406 218.523438 C 171.78125 226.789062 162.089844 234.835938 151.042969 241.570312 C 140.054688 248.339844 127.515625 253.429688 114.476562 256.03125 C 107.957031 257.316406 101.34375 258.046875 94.773438 258.183594 L 93.542969 258.207031 L 92.628906 258.210938 L 89.886719 258.15625 C 89.242188 258.160156 88.191406 258.085938 87.300781 258.03125 C 86.390625 257.96875 85.429688 257.921875 84.558594 257.835938 C 81.132812 257.484375 77.707031 257.019531 74.335938 256.261719 C 60.832031 253.371094 47.910156 247.191406 37.347656 238.097656 C 26.75 229.070312 18.457031 217.273438 13.628906 204.1875 C 11.152344 197.667969 9.644531 190.820312 8.925781 183.957031 L 8.757812 182.332031 L 8.691406 181.234375 L 8.558594 179.042969 L 8.527344 178.492188 L 8.511719 177.804688 L 8.488281 176.410156 L 8.46875 173.625 C 8.566406 170.15625 8.800781 166.710938 9.304688 163.28125 C 10.292969 156.433594 12.074219 149.675781 14.75 143.296875 C 17.441406 136.925781 20.90625 130.90625 25.027344 125.402344 C 29.15625 119.894531 33.996094 114.960938 39.316406 110.648438 C 44.652344 106.351562 50.570312 102.808594 56.78125 99.988281 C 62.996094 97.15625 69.566406 95.148438 76.257812 93.996094 C 77.929688 93.6875 79.613281 93.457031 81.300781 93.300781 C 82.980469 93.085938 84.675781 93.011719 86.359375 92.921875 C 88.046875 92.796875 89.738281 92.875 91.421875 92.851562 L 92.339844 92.855469 L 92.890625 92.886719 L 93.984375 92.953125 L 96.179688 93.078125 L 86.316406 99.015625 C 90.632812 90.910156 95.929688 83.355469 102.136719 76.675781 C 108.328125 69.996094 115.3125 64.089844 122.9375 59.226562 C 130.570312 54.386719 138.785156 50.539062 147.308594 47.792969 C 155.839844 45.054688 164.707031 43.542969 173.535156 43.097656 C 177.953125 42.890625 182.378906 42.925781 186.75 43.371094 L 189.863281 43.648438 L 193.21875 44.113281 C 195.480469 44.375 197.617188 44.828125 199.75 45.273438 C 204.027344 46.167969 208.214844 47.417969 212.308594 48.851562 C 214.367188 49.546875 216.351562 50.4375 218.363281 51.222656 C 220.339844 52.09375 222.273438 53.074219 224.207031 54.007812 C 226.085938 55.070312 227.992188 56.0625 229.824219 57.179688 C 231.617188 58.359375 233.484375 59.40625 235.199219 60.6875 C 236.933594 61.945312 238.699219 63.132812 240.324219 64.507812 L 242.804688 66.507812 C 243.617188 67.191406 244.386719 67.925781 245.179688 68.628906 C 246.765625 70.027344 248.246094 71.542969 249.695312 73.074219 C 251.195312 74.554688 252.527344 76.195312 253.902344 77.777344 C 255.300781 79.335938 256.496094 81.074219 257.789062 82.707031 C 259.011719 84.398438 260.125 86.167969 261.285156 87.882812 C 258.410156 84.875 255.484375 81.96875 252.363281 79.292969 C 250.777344 77.984375 249.25 76.628906 247.578125 75.449219 L 245.125 73.625 C 244.296875 73.03125 243.425781 72.496094 242.589844 71.925781 C 241.742188 71.363281 240.921875 70.773438 240.0625 70.238281 L 237.457031 68.683594 C 235.753906 67.601562 233.925781 66.722656 232.15625 65.777344 C 230.394531 64.8125 228.507812 64.085938 226.707031 63.230469 C 224.871094 62.433594 222.976562 61.773438 221.132812 61.039062 L 215.453125 59.234375 C 213.523438 58.753906 211.644531 58.160156 209.703125 57.765625 C 205.847656 56.929688 201.96875 56.277344 198.066406 55.945312 C 196.113281 55.761719 194.164062 55.570312 192.292969 55.566406 L 189.46875 55.476562 L 186.386719 55.542969 C 182.488281 55.550781 178.628906 56.007812 174.8125 56.546875 C 167.183594 57.683594 159.757812 59.757812 152.757812 62.742188 C 145.75 65.679688 139.15625 69.5 133.167969 74.054688 C 127.15625 78.570312 121.757812 83.84375 117.113281 89.667969 C 112.492188 95.5 108.527344 101.824219 105.46875 108.535156 L 102.769531 114.464844 L 95.605469 114.476562 L 92.308594 114.476562 L 91.761719 114.480469 C 92.296875 114.488281 91.84375 114.484375 91.933594 114.492188 L 91.8125 114.5 L 91.578125 114.511719 C 90.339844 114.621094 89.09375 114.613281 87.863281 114.792969 C 86.632812 114.9375 85.402344 115.054688 84.1875 115.296875 C 82.964844 115.476562 81.757812 115.734375 80.558594 116.011719 C 75.75 117.070312 71.097656 118.746094 66.75 120.988281 C 58.027344 125.425781 50.496094 132.054688 44.90625 139.957031 C 42.144531 143.933594 39.871094 148.226562 38.144531 152.714844 C 36.476562 157.226562 35.28125 161.898438 34.707031 166.664062 C 34.398438 169.042969 34.300781 171.457031 34.269531 173.84375 L 34.320312 175.457031 L 34.335938 176.257812 L 34.34375 176.667969 L 34.386719 177.21875 L 34.5625 179.410156 L 34.652344 180.503906 C 34.679688 180.863281 34.625 180.175781 34.636719 180.28125 L 34.652344 180.394531 L 34.683594 180.617188 L 34.742188 181.066406 C 35.335938 185.84375 36.492188 190.507812 38.1875 194.945312 C 41.535156 203.84375 47.210938 211.800781 54.496094 217.925781 C 61.738281 224.089844 70.523438 228.476562 79.917969 230.53125 C 82.257812 231.078125 84.648438 231.402344 87.042969 231.675781 C 87.628906 231.742188 88.136719 231.757812 88.679688 231.804688 C 89.25 231.84375 89.664062 231.910156 90.480469 231.917969 L 92.675781 231.972656 L 93.226562 231.988281 C 92.671875 231.980469 93.140625 231.984375 93.050781 231.980469 L 93.171875 231.980469 L 93.414062 231.976562 L 94.375 231.964844 C 99.523438 231.964844 104.605469 231.484375 109.601562 230.609375 C 119.597656 228.832031 129.144531 225.09375 138.300781 219.914062 C 147.457031 214.730469 156.144531 208.03125 164.652344 200.644531 C 173.207031 193.300781 181.589844 185.257812 190.328125 177.210938 C 199.089844 169.195312 208.269531 161.191406 218.335938 153.964844 C 223.359375 150.347656 228.664062 147.003906 234.175781 143.972656 C 235.550781 143.214844 236.945312 142.480469 238.355469 141.773438 C 239.726562 141.074219 241.335938 140.304688 242.691406 139.679688 L 244.699219 138.78125 C 245.601562 138.378906 246.230469 138.140625 247.003906 137.816406 C 248.5 137.21875 249.953125 136.558594 251.492188 136.054688 C 263.554688 131.648438 276.929688 129.53125 290.199219 131.515625 C 303.371094 133.40625 316.425781 140.015625 324.808594 151.046875 C 326.90625 153.769531 328.632812 156.800781 329.984375 159.976562 C 331.367188 163.144531 332.3125 166.507812 332.777344 169.929688 C 333.273438 173.339844 333.332031 176.820312 332.867188 180.203125 C 332.734375 181.820312 332.234375 183.796875 331.859375 185.382812 L 331.203125 187.484375 L 330.976562 188.222656 L 330.710938 188.804688 L 330.175781 189.964844 C 327.265625 196.117188 322.667969 201.007812 317.597656 204.660156 C 315.0625 206.503906 312.355469 208.03125 309.539062 209.214844 C 306.746094 210.414062 303.847656 211.367188 300.9375 211.925781 Z M 300.9375 211.925781 " clipRule="nonzero"/></clipPath><clipPath id="f5d0e35dff"><path d="M 300.9375 211.925781 C 303.488281 210.347656 305.851562 208.671875 308.035156 206.785156 C 310.195312 204.878906 312.183594 202.855469 313.941406 200.71875 C 320.222656 193.011719 323.648438 181.847656 321.285156 172.019531 C 320.753906 169.667969 319.886719 167.398438 318.71875 165.285156 C 317.578125 163.167969 316.199219 161.167969 314.542969 159.394531 C 308.042969 152.144531 298.308594 148.035156 288.292969 147.363281 C 278.226562 146.542969 267.847656 148.859375 258.203125 153.101562 C 256.976562 153.570312 255.796875 154.207031 254.597656 154.761719 C 254.039062 155.035156 253.3125 155.367188 252.894531 155.589844 L 250.953125 156.621094 C 249.695312 157.316406 248.695312 157.878906 247.496094 158.59375 C 246.332031 159.28125 245.179688 159.996094 244.035156 160.726562 C 239.453125 163.644531 235.0625 166.921875 230.746094 170.378906 C 222.121094 177.308594 214.03125 185.222656 205.902344 193.4375 C 197.738281 201.632812 189.570312 210.195312 180.691406 218.523438 C 171.78125 226.789062 162.089844 234.835938 151.042969 241.570312 C 140.054688 248.339844 127.515625 253.429688 114.476562 256.03125 C 107.957031 257.316406 101.34375 258.046875 94.773438 258.183594 L 93.542969 258.207031 L 92.628906 258.210938 L 89.886719 258.15625 C 89.242188 258.160156 88.191406 258.085938 87.300781 258.03125 C 86.390625 257.96875 85.429688 257.921875 84.558594 257.835938 C 81.132812 257.484375 77.707031 257.019531 74.335938 256.261719 C 60.832031 253.371094 47.910156 247.191406 37.347656 238.097656 C 26.75 229.070312 18.457031 217.273438 13.628906 204.1875 C 11.152344 197.667969 9.644531 190.820312 8.925781 183.957031 L 8.757812 182.332031 L 8.691406 181.234375 L 8.558594 179.042969 L 8.527344 178.492188 L 8.511719 177.804688 L 8.488281 176.410156 L 8.46875 173.625 C 8.566406 170.15625 8.800781 166.710938 9.304688 163.28125 C 10.292969 156.433594 12.074219 149.675781 14.75 143.296875 C 17.441406 136.925781 20.90625 130.90625 25.027344 125.402344 C 29.15625 119.894531 33.996094 114.960938 39.316406 110.648438 C 44.652344 106.351562 50.570312 102.808594 56.78125 99.988281 C 62.996094 97.15625 69.566406 95.148438 76.257812 93.996094 C 77.929688 93.6875 79.613281 93.457031 81.300781 93.300781 C 82.980469 93.085938 84.675781 93.011719 86.359375 92.921875 C 88.046875 92.796875 89.738281 92.875 91.421875 92.851562 L 92.339844 92.855469 L 92.890625 92.886719 L 93.984375 92.953125 L 96.179688 93.078125 L 86.316406 99.015625 C 90.632812 90.910156 95.929688 83.355469 102.136719 76.675781 C 108.328125 69.996094 115.3125 64.089844 122.9375 59.226562 C 130.570312 54.386719 138.785156 50.539062 147.308594 47.792969 C 155.839844 45.054688 164.707031 43.542969 173.535156 43.097656 C 177.953125 42.890625 182.378906 42.925781 186.75 43.371094 L 189.863281 43.648438 L 193.21875 44.113281 C 195.480469 44.375 197.617188 44.828125 199.75 45.273438 C 204.027344 46.167969 208.214844 47.417969 212.308594 48.851562 C 214.367188 49.546875 216.351562 50.4375 218.363281 51.222656 C 220.339844 52.09375 222.273438 53.074219 224.207031 54.007812 C 226.085938 55.070312 227.992188 56.0625 229.824219 57.179688 C 231.617188 58.359375 233.484375 59.40625 235.199219 60.6875 C 236.933594 61.945312 238.699219 63.132812 240.324219 64.507812 L 242.804688 66.507812 C 243.617188 67.191406 244.386719 67.925781 245.179688 68.628906 C 246.765625 70.027344 248.246094 71.542969 249.695312 73.074219 C 251.195312 74.554688 252.527344 76.195312 253.902344 77.777344 C 255.300781 79.335938 256.496094 81.074219 257.789062 82.707031 C 259.011719 84.398438 260.125 86.167969 261.285156 87.882812 C 258.410156 84.875 255.484375 81.96875 252.363281 79.292969 C 250.777344 77.984375 249.25 76.628906 247.578125 75.449219 L 245.125 73.625 C 244.296875 73.03125 243.425781 72.496094 242.589844 71.925781 C 241.742188 71.363281 240.921875 70.773438 240.0625 70.238281 L 237.457031 68.683594 C 235.753906 67.601562 233.925781 66.722656 232.15625 65.777344 C 230.394531 64.8125 228.507812 64.085938 226.707031 63.230469 C 224.871094 62.433594 222.976562 61.773438 221.132812 61.039062 L 215.453125 59.234375 C 213.523438 58.753906 211.644531 58.160156 209.703125 57.765625 C 205.847656 56.929688 201.96875 56.277344 198.066406 55.945312 C 196.113281 55.761719 194.164062 55.570312 192.292969 55.566406 L 189.46875 55.476562 L 186.386719 55.542969 C 182.488281 55.550781 178.628906 56.007812 174.8125 56.546875 C 167.183594 57.683594 159.757812 59.757812 152.757812 62.742188 C 145.75 65.679688 139.15625 69.5 133.167969 74.054688 C 127.15625 78.570312 121.757812 83.84375 117.113281 89.667969 C 112.492188 95.5 108.527344 101.824219 105.46875 108.535156 L 102.769531 114.464844 L 95.605469 114.476562 L 92.308594 114.476562 L 91.761719 114.480469 C 92.296875 114.488281 91.84375 114.484375 91.933594 114.492188 L 91.8125 114.5 L 91.578125 114.511719 C 90.339844 114.621094 89.09375 114.613281 87.863281 114.792969 C 86.632812 114.9375 85.402344 115.054688 84.1875 115.296875 C 82.964844 115.476562 81.757812 115.734375 80.558594 116.011719 C 75.75 117.070312 71.097656 118.746094 66.75 120.988281 C 58.027344 125.425781 50.496094 132.054688 44.90625 139.957031 C 42.144531 143.933594 39.871094 148.226562 38.144531 152.714844 C 36.476562 157.226562 35.28125 161.898438 34.707031 166.664062 C 34.398438 169.042969 34.300781 171.457031 34.269531 173.84375 L 34.320312 175.457031 L 34.335938 176.257812 L 34.34375 176.667969 L 34.386719 177.21875 L 34.5625 179.410156 L 34.652344 180.503906 C 34.679688 180.863281 34.625 180.175781 34.636719 180.28125 L 34.652344 180.394531 L 34.683594 180.617188 L 34.742188 181.066406 C 35.335938 185.84375 36.492188 190.507812 38.1875 194.945312 C 41.535156 203.84375 47.210938 211.800781 54.496094 217.925781 C 61.738281 224.089844 70.523438 228.476562 79.917969 230.53125 C 82.257812 231.078125 84.648438 231.402344 87.042969 231.675781 C 87.628906 231.742188 88.136719 231.757812 88.679688 231.804688 C 89.25 231.84375 89.664062 231.910156 90.480469 231.917969 L 92.675781 231.972656 L 93.226562 231.988281 C 92.671875 231.980469 93.140625 231.984375 93.050781 231.980469 L 93.171875 231.980469 L 93.414062 231.976562 L 94.375 231.964844 C 99.523438 231.964844 104.605469 231.484375 109.601562 230.609375 C 119.597656 228.832031 129.144531 225.09375 138.300781 219.914062 C 147.457031 214.730469 156.144531 208.03125 164.652344 200.644531 C 173.207031 193.300781 181.589844 185.257812 190.328125 177.210938 C 199.089844 169.195312 208.269531 161.191406 218.335938 153.964844 C 223.359375 150.347656 228.664062 147.003906 234.175781 143.972656 C 235.550781 143.214844 236.945312 142.480469 238.355469 141.773438 C 239.726562 141.074219 241.335938 140.304688 242.691406 139.679688 L 244.699219 138.78125 C 245.601562 138.378906 246.230469 138.140625 247.003906 137.816406 C 248.5 137.21875 249.953125 136.558594 251.492188 136.054688 C 263.554688 131.648438 276.929688 129.53125 290.199219 131.515625 C 303.371094 133.40625 316.425781 140.015625 324.808594 151.046875 C 326.90625 153.769531 328.632812 156.800781 329.984375 159.976562 C 331.367188 163.144531 332.3125 166.507812 332.777344 169.929688 C 333.273438 173.339844 333.332031 176.820312 332.867188 180.203125 C 332.734375 181.820312 332.234375 183.796875 331.859375 185.382812 L 331.203125 187.484375 L 330.976562 188.222656 L 330.710938 188.804688 L 330.175781 189.964844 C 327.265625 196.117188 322.667969 201.007812 317.597656 204.660156 C 315.0625 206.503906 312.355469 208.03125 309.539062 209.214844 C 306.746094 210.414062 303.847656 211.367188 300.9375 211.925781 " clipRule="nonzero"/></clipPath><clipPath id="b470d61d8f"><path d="M 431.894531 107.394531 L 105.789062 -106.023438 L -90.09375 193.707031 L 236.011719 407.128906 Z M 431.894531 107.394531 " clipRule="nonzero"/></clipPath><radialGradient gradientTransform="matrix(-0.547136, 0.837213, -0.836621, -0.547523, 241.572559, 33.308049)" gradientUnits="userSpaceOnUse" r="297.52893" cx="0" id="ce97e147c3" cy="0" fx="0" fy="0"><stop stop-opacity="1" stop-color="rgb(31.604004%, 67.652893%, 89.7995%)" offset="0"/><stop stop-opacity="1" stop-color="rgb(31.404114%, 67.501831%, 89.608765%)" offset="0.00390625"/><stop stop-opacity="1" stop-color="rgb(31.399536%, 67.312622%, 89.408875%)" offset="0.0078125"/><stop stop-opacity="1" stop-color="rgb(31.217957%, 67.112732%, 89.399719%)" offset="0.0117188"/><stop stop-opacity="1" stop-color="rgb(31.018066%, 66.921997%, 89.222717%)" offset="0.015625"/><stop stop-opacity="1" stop-color="rgb(30.999756%, 66.522217%, 88.999939%)" offset="0.0195312"/><stop stop-opacity="1" stop-color="rgb(30.999756%, 66.281128%, 88.777161%)" offset="0.0234375"/><stop stop-opacity="1" stop-color="rgb(30.999756%, 66.069031%, 88.586426%)" offset="0.0273438"/><stop stop-opacity="1" stop-color="rgb(30.990601%, 65.686035%, 88.386536%)" offset="0.03125"/><stop stop-opacity="1" stop-color="rgb(30.79071%, 65.4953%, 88.198853%)" offset="0.0351562"/><stop stop-opacity="1" stop-color="rgb(30.599976%, 65.296936%, 88.198853%)" offset="0.0390625"/><stop stop-opacity="1" stop-color="rgb(30.599976%, 65.100098%, 88.005066%)" offset="0.0429688"/><stop stop-opacity="1" stop-color="rgb(30.599976%, 64.909363%, 87.805176%)" offset="0.046875"/><stop stop-opacity="1" stop-color="rgb(30.599976%, 64.709473%, 87.799072%)" offset="0.0507812"/><stop stop-opacity="1" stop-color="rgb(30.599976%, 64.518738%, 87.663269%)" offset="0.0546875"/><stop stop-opacity="1" stop-color="rgb(30.4245%, 64.318848%, 87.513733%)" offset="0.0585938"/><stop stop-opacity="1" stop-color="rgb(30.223083%, 64.099121%, 87.478638%)" offset="0.0625"/><stop stop-opacity="1" stop-color="rgb(30.183411%, 63.883972%, 87.278748%)" offset="0.0664062"/><stop stop-opacity="1" stop-color="rgb(29.983521%, 63.673401%, 87.098694%)" offset="0.0703125"/><stop stop-opacity="1" stop-color="rgb(29.798889%, 63.288879%, 87.09259%)" offset="0.0742188"/><stop stop-opacity="1" stop-color="rgb(29.798889%, 63.098145%, 86.8927%)" offset="0.078125"/><stop stop-opacity="1" stop-color="rgb(29.798889%, 62.901306%, 86.698914%)" offset="0.0820312"/><stop stop-opacity="1" stop-color="rgb(29.798889%, 62.557983%, 86.698914%)" offset="0.0859375"/><stop stop-opacity="1" stop-color="rgb(29.611206%, 62.405396%, 86.51123%)" offset="0.0898438"/><stop stop-opacity="1" stop-color="rgb(29.411316%, 62.216187%, 86.31134%)" offset="0.09375"/><stop stop-opacity="1" stop-color="rgb(29.399109%, 62.016296%, 86.299133%)" offset="0.0976562"/><stop stop-opacity="1" stop-color="rgb(29.399109%, 61.799622%, 86.099243%)" offset="0.101562"/><stop stop-opacity="1" stop-color="rgb(29.399109%, 61.579895%, 85.899353%)" offset="0.105469"/><stop stop-opacity="1" stop-color="rgb(29.399109%, 61.380005%, 85.884094%)" offset="0.109375"/><stop stop-opacity="1" stop-color="rgb(29.389954%, 61.18927%, 85.684204%)" offset="0.113281"/><stop stop-opacity="1" stop-color="rgb(29.190063%, 60.98938%, 85.494995%)" offset="0.117188"/><stop stop-opacity="1" stop-color="rgb(28.999329%, 60.798645%, 85.295105%)" offset="0.121094"/><stop stop-opacity="1" stop-color="rgb(28.999329%, 60.603333%, 85.099792%)" offset="0.125"/><stop stop-opacity="1" stop-color="rgb(28.999329%, 60.403442%, 85.099792%)" offset="0.128906"/><stop stop-opacity="1" stop-color="rgb(28.999329%, 60.212708%, 84.913635%)" offset="0.132812"/><stop stop-opacity="1" stop-color="rgb(28.999329%, 60.012817%, 84.712219%)" offset="0.136719"/><stop stop-opacity="1" stop-color="rgb(28.822327%, 59.822083%, 84.698486%)" offset="0.140625"/><stop stop-opacity="1" stop-color="rgb(28.622437%, 59.422302%, 84.498596%)" offset="0.144531"/><stop stop-opacity="1" stop-color="rgb(28.581238%, 59.181213%, 84.281921%)" offset="0.148438"/><stop stop-opacity="1" stop-color="rgb(28.381348%, 58.969116%, 84.082031%)" offset="0.152344"/><stop stop-opacity="1" stop-color="rgb(28.199768%, 58.586121%, 83.898926%)" offset="0.15625"/><stop stop-opacity="1" stop-color="rgb(28.199768%, 58.395386%, 83.898926%)" offset="0.160156"/><stop stop-opacity="1" stop-color="rgb(28.199768%, 58.197021%, 83.898926%)" offset="0.164062"/><stop stop-opacity="1" stop-color="rgb(28.199768%, 58.000183%, 83.705139%)" offset="0.167969"/><stop stop-opacity="1" stop-color="rgb(28.199768%, 57.809448%, 83.505249%)" offset="0.171875"/><stop stop-opacity="1" stop-color="rgb(28.015137%, 57.609558%, 83.499146%)" offset="0.175781"/><stop stop-opacity="1" stop-color="rgb(27.815247%, 57.4646%, 83.319092%)" offset="0.179688"/><stop stop-opacity="1" stop-color="rgb(27.799988%, 57.315063%, 83.119202%)" offset="0.183594"/><stop stop-opacity="1" stop-color="rgb(27.799988%, 57.098389%, 83.078003%)" offset="0.1875"/><stop stop-opacity="1" stop-color="rgb(27.799988%, 56.898499%, 82.878113%)" offset="0.191406"/><stop stop-opacity="1" stop-color="rgb(27.799988%, 56.887817%, 82.69043%)" offset="0.195312"/><stop stop-opacity="1" stop-color="rgb(27.799988%, 56.681824%, 82.540894%)" offset="0.199219"/><stop stop-opacity="1" stop-color="rgb(27.798462%, 56.292725%, 82.398987%)" offset="0.203125"/><stop stop-opacity="1" stop-color="rgb(27.650452%, 56.098938%, 82.398987%)" offset="0.207031"/><stop stop-opacity="1" stop-color="rgb(27.500916%, 55.906677%, 82.206726%)" offset="0.210938"/><stop stop-opacity="1" stop-color="rgb(27.49939%, 55.706787%, 82.006836%)" offset="0.214844"/><stop stop-opacity="1" stop-color="rgb(27.49939%, 55.516052%, 81.816101%)" offset="0.21875"/><stop stop-opacity="1" stop-color="rgb(27.49939%, 55.137634%, 81.616211%)" offset="0.222656"/><stop stop-opacity="1" stop-color="rgb(27.2995%, 54.896545%, 81.599426%)" offset="0.226562"/><stop stop-opacity="1" stop-color="rgb(27.099609%, 54.675293%, 81.57959%)" offset="0.230469"/><stop stop-opacity="1" stop-color="rgb(27.084351%, 54.484558%, 81.3797%)" offset="0.234375"/><stop stop-opacity="1" stop-color="rgb(26.88446%, 54.284668%, 81.199646%)" offset="0.238281"/><stop stop-opacity="1" stop-color="rgb(26.699829%, 54.093933%, 81.195068%)" offset="0.242188"/><stop stop-opacity="1" stop-color="rgb(26.699829%, 53.894043%, 80.995178%)" offset="0.246094"/><stop stop-opacity="1" stop-color="rgb(26.699829%, 53.69873%, 80.799866%)" offset="0.25"/><stop stop-opacity="1" stop-color="rgb(26.699829%, 53.507996%, 80.799866%)" offset="0.253906"/><stop stop-opacity="1" stop-color="rgb(26.699829%, 53.308105%, 80.618286%)" offset="0.257812"/><stop stop-opacity="1" stop-color="rgb(26.699829%, 53.121948%, 80.41687%)" offset="0.265625"/><stop stop-opacity="1" stop-color="rgb(26.498413%, 52.722168%, 80.198669%)" offset="0.269531"/><stop stop-opacity="1" stop-color="rgb(26.298523%, 52.485657%, 79.981995%)" offset="0.273438"/><stop stop-opacity="1" stop-color="rgb(26.298523%, 52.328491%, 79.782104%)" offset="0.277344"/><stop stop-opacity="1" stop-color="rgb(26.295471%, 51.991272%, 79.595947%)" offset="0.285156"/><stop stop-opacity="1" stop-color="rgb(26.097107%, 51.799011%, 79.397583%)" offset="0.289062"/><stop stop-opacity="1" stop-color="rgb(25.900269%, 51.605225%, 79.200745%)" offset="0.292969"/><stop stop-opacity="1" stop-color="rgb(25.898743%, 51.220703%, 79.014587%)" offset="0.296875"/><stop stop-opacity="1" stop-color="rgb(25.718689%, 51.014709%, 78.814697%)" offset="0.304688"/><stop stop-opacity="1" stop-color="rgb(25.518799%, 50.823975%, 78.799438%)" offset="0.308594"/><stop stop-opacity="1" stop-color="rgb(25.498962%, 50.602722%, 78.778076%)" offset="0.3125"/><stop stop-opacity="1" stop-color="rgb(25.498962%, 50.367737%, 78.578186%)" offset="0.316406"/><stop stop-opacity="1" stop-color="rgb(25.498962%, 49.987793%, 78.393555%)" offset="0.324219"/><stop stop-opacity="1" stop-color="rgb(25.498962%, 49.797058%, 78.193665%)" offset="0.328125"/><stop stop-opacity="1" stop-color="rgb(25.498962%, 49.60022%, 77.999878%)" offset="0.332031"/><stop stop-opacity="1" stop-color="rgb(25.306702%, 49.401855%, 77.999878%)" offset="0.335938"/><stop stop-opacity="1" stop-color="rgb(25.106812%, 49.211121%, 77.999878%)" offset="0.339844"/><stop stop-opacity="1" stop-color="rgb(25.099182%, 49.01123%, 77.816772%)" offset="0.34375"/><stop stop-opacity="1" stop-color="rgb(25.099182%, 48.820496%, 77.615356%)" offset="0.347656"/><stop stop-opacity="1" stop-color="rgb(25.099182%, 48.597717%, 77.449036%)" offset="0.351562"/><stop stop-opacity="1" stop-color="rgb(25.099182%, 48.374939%, 77.279663%)" offset="0.355469"/><stop stop-opacity="1" stop-color="rgb(25.099182%, 48.184204%, 77.079773%)" offset="0.359375"/><stop stop-opacity="1" stop-color="rgb(25.090027%, 47.984314%, 76.899719%)" offset="0.363281"/><stop stop-opacity="1" stop-color="rgb(24.890137%, 47.795105%, 76.895142%)" offset="0.367188"/><stop stop-opacity="1" stop-color="rgb(24.699402%, 47.645569%, 76.695251%)" offset="0.371094"/><stop stop-opacity="1" stop-color="rgb(24.508667%, 47.30835%, 76.499939%)" offset="0.378906"/><stop stop-opacity="1" stop-color="rgb(24.308777%, 46.92688%, 76.318359%)" offset="0.382812"/><stop stop-opacity="1" stop-color="rgb(24.299622%, 46.717834%, 76.116943%)" offset="0.390625"/><stop stop-opacity="1" stop-color="rgb(24.299622%, 46.499634%, 76.077271%)" offset="0.394531"/><stop stop-opacity="1" stop-color="rgb(24.299622%, 46.286011%, 75.87738%)" offset="0.398438"/><stop stop-opacity="1" stop-color="rgb(24.299622%, 46.086121%, 75.691223%)" offset="0.40625"/><stop stop-opacity="1" stop-color="rgb(24.29657%, 45.895386%, 75.491333%)" offset="0.410156"/><stop stop-opacity="1" stop-color="rgb(24.098206%, 45.697021%, 75.299072%)" offset="0.414062"/><stop stop-opacity="1" stop-color="rgb(23.901367%, 45.306396%, 75.299072%)" offset="0.417969"/><stop stop-opacity="1" stop-color="rgb(23.899841%, 45.10498%, 75.109863%)" offset="0.421875"/><stop stop-opacity="1" stop-color="rgb(23.899841%, 44.914246%, 74.909973%)" offset="0.425781"/><stop stop-opacity="1" stop-color="rgb(23.899841%, 44.540405%, 74.723816%)" offset="0.429688"/><stop stop-opacity="1" stop-color="rgb(23.899841%, 44.32373%, 74.504089%)" offset="0.4375"/><stop stop-opacity="1" stop-color="rgb(23.883057%, 44.282532%, 74.278259%)" offset="0.441406"/><stop stop-opacity="1" stop-color="rgb(23.683167%, 44.076538%, 74.099731%)" offset="0.445312"/><stop stop-opacity="1" stop-color="rgb(23.497009%, 43.693542%, 74.098206%)" offset="0.453125"/><stop stop-opacity="1" stop-color="rgb(23.300171%, 43.499756%, 73.901367%)" offset="0.457031"/><stop stop-opacity="1" stop-color="rgb(23.101807%, 43.307495%, 73.703003%)" offset="0.460938"/><stop stop-opacity="1" stop-color="rgb(23.098755%, 43.107605%, 73.516846%)" offset="0.464844"/><stop stop-opacity="1" stop-color="rgb(23.098755%, 42.921448%, 73.31543%)" offset="0.472656"/><stop stop-opacity="1" stop-color="rgb(23.098755%, 42.570496%, 73.275757%)" offset="0.476562"/><stop stop-opacity="1" stop-color="rgb(23.098755%, 42.379761%, 73.075867%)" offset="0.480469"/><stop stop-opacity="1" stop-color="rgb(23.098755%, 42.170715%, 72.889709%)" offset="0.484375"/><stop stop-opacity="1" stop-color="rgb(23.094177%, 41.789246%, 72.689819%)" offset="0.492188"/><stop stop-opacity="1" stop-color="rgb(22.894287%, 41.598511%, 72.499084%)" offset="0.496094"/><stop stop-opacity="1" stop-color="rgb(22.698975%, 41.407776%, 72.499084%)" offset="0.503906"/><stop stop-opacity="1" stop-color="rgb(22.698975%, 41.207886%, 72.358704%)" offset="0.507812"/><stop stop-opacity="1" stop-color="rgb(22.698975%, 41.017151%, 72.209167%)" offset="0.511719"/><stop stop-opacity="1" stop-color="rgb(22.566223%, 40.817261%, 72.021484%)" offset="0.515625"/><stop stop-opacity="1" stop-color="rgb(22.416687%, 40.59906%, 71.821594%)" offset="0.519531"/><stop stop-opacity="1" stop-color="rgb(22.399902%, 40.39917%, 71.781921%)" offset="0.523438"/><stop stop-opacity="1" stop-color="rgb(22.399902%, 40.386963%, 71.582031%)" offset="0.527344"/><stop stop-opacity="1" stop-color="rgb(22.399902%, 40.187073%, 71.398926%)" offset="0.53125"/><stop stop-opacity="1" stop-color="rgb(22.399902%, 39.996338%, 71.398926%)" offset="0.535156"/><stop stop-opacity="1" stop-color="rgb(22.399902%, 39.797974%, 71.398926%)" offset="0.539062"/><stop stop-opacity="1" stop-color="rgb(22.206116%, 39.601135%, 71.205139%)" offset="0.542969"/><stop stop-opacity="1" stop-color="rgb(22.0047%, 39.4104%, 71.005249%)" offset="0.546875"/><stop stop-opacity="1" stop-color="rgb(21.998596%, 39.21051%, 70.814514%)" offset="0.550781"/><stop stop-opacity="1" stop-color="rgb(21.998596%, 39.019775%, 70.614624%)" offset="0.554688"/><stop stop-opacity="1" stop-color="rgb(21.998596%, 38.818359%, 70.599365%)" offset="0.558594"/><stop stop-opacity="1" stop-color="rgb(21.998596%, 38.598633%, 70.578003%)" offset="0.5625"/><stop stop-opacity="1" stop-color="rgb(21.998596%, 38.383484%, 70.378113%)" offset="0.566406"/><stop stop-opacity="1" stop-color="rgb(21.99707%, 38.182068%, 70.198059%)" offset="0.570312"/><stop stop-opacity="1" stop-color="rgb(21.800232%, 37.800598%, 70.001221%)" offset="0.582031"/><stop stop-opacity="1" stop-color="rgb(21.601868%, 37.451172%, 69.619751%)" offset="0.585938"/><stop stop-opacity="1" stop-color="rgb(21.420288%, 37.298584%, 69.415283%)" offset="0.597656"/><stop stop-opacity="1" stop-color="rgb(21.220398%, 37.098694%, 69.198608%)" offset="0.601562"/><stop stop-opacity="1" stop-color="rgb(21.199036%, 36.880493%, 68.998718%)" offset="0.605469"/><stop stop-opacity="1" stop-color="rgb(21.199036%, 36.680603%, 68.984985%)" offset="0.609375"/><stop stop-opacity="1" stop-color="rgb(21.199036%, 36.489868%, 68.785095%)" offset="0.613281"/><stop stop-opacity="1" stop-color="rgb(21.199036%, 36.289978%, 68.598938%)" offset="0.617188"/><stop stop-opacity="1" stop-color="rgb(21.199036%, 36.099243%, 68.598938%)" offset="0.621094"/><stop stop-opacity="1" stop-color="rgb(21.199036%, 35.903931%, 68.403625%)" offset="0.625"/><stop stop-opacity="1" stop-color="rgb(21.199036%, 35.704041%, 68.203735%)" offset="0.628906"/><stop stop-opacity="1" stop-color="rgb(21.199036%, 35.517883%, 68.199158%)" offset="0.636719"/><stop stop-opacity="1" stop-color="rgb(21.022034%, 35.317993%, 68.022156%)" offset="0.640625"/><stop stop-opacity="1" stop-color="rgb(20.822144%, 35.099792%, 67.822266%)" offset="0.644531"/><stop stop-opacity="1" stop-color="rgb(20.799255%, 34.886169%, 67.790222%)" offset="0.648438"/><stop stop-opacity="1" stop-color="rgb(20.799255%, 34.683228%, 67.63916%)" offset="0.65625"/><stop stop-opacity="1" stop-color="rgb(20.799255%, 34.29718%, 67.498779%)" offset="0.664062"/><stop stop-opacity="1" stop-color="rgb(20.605469%, 34.100342%, 67.304993%)" offset="0.667969"/><stop stop-opacity="1" stop-color="rgb(20.405579%, 33.914185%, 67.105103%)" offset="0.671875"/><stop stop-opacity="1" stop-color="rgb(20.399475%, 33.714294%, 66.918945%)" offset="0.679688"/><stop stop-opacity="1" stop-color="rgb(20.399475%, 33.52356%, 66.719055%)" offset="0.683594"/><stop stop-opacity="1" stop-color="rgb(20.399475%, 33.303833%, 66.499329%)" offset="0.6875"/><stop stop-opacity="1" stop-color="rgb(20.399475%, 33.067322%, 66.299438%)" offset="0.691406"/><stop stop-opacity="1" stop-color="rgb(20.393372%, 32.688904%, 66.293335%)" offset="0.699219"/><stop stop-opacity="1" stop-color="rgb(20.193481%, 32.348633%, 66.093445%)" offset="0.703125"/><stop stop-opacity="1" stop-color="rgb(19.999695%, 32.199097%, 65.716553%)" offset="0.71875"/><stop stop-opacity="1" stop-color="rgb(19.999695%, 32.020569%, 65.516663%)" offset="0.722656"/><stop stop-opacity="1" stop-color="rgb(19.999695%, 31.797791%, 65.475464%)" offset="0.726562"/><stop stop-opacity="1" stop-color="rgb(19.979858%, 31.575012%, 65.275574%)" offset="0.730469"/><stop stop-opacity="1" stop-color="rgb(19.779968%, 31.390381%, 65.089417%)" offset="0.734375"/><stop stop-opacity="1" stop-color="rgb(19.599915%, 31.190491%, 64.889526%)" offset="0.742188"/><stop stop-opacity="1" stop-color="rgb(19.599915%, 30.804443%, 64.503479%)" offset="0.75"/><stop stop-opacity="1" stop-color="rgb(19.599915%, 30.604553%, 64.303589%)" offset="0.753906"/><stop stop-opacity="1" stop-color="rgb(19.599915%, 30.413818%, 64.299011%)" offset="0.757812"/><stop stop-opacity="1" stop-color="rgb(19.599915%, 30.212402%, 64.299011%)" offset="0.761719"/><stop stop-opacity="1" stop-color="rgb(19.599915%, 30.198669%, 64.122009%)" offset="0.765625"/><stop stop-opacity="1" stop-color="rgb(19.398499%, 29.998779%, 63.922119%)" offset="0.769531"/><stop stop-opacity="1" stop-color="rgb(19.198608%, 29.798889%, 63.899231%)" offset="0.773438"/><stop stop-opacity="1" stop-color="rgb(19.198608%, 29.786682%, 63.887024%)" offset="0.777344"/><stop stop-opacity="1" stop-color="rgb(19.198608%, 29.586792%, 63.687134%)" offset="0.78125"/><stop stop-opacity="1" stop-color="rgb(19.198608%, 29.396057%, 63.499451%)" offset="0.785156"/><stop stop-opacity="1" stop-color="rgb(19.198608%, 29.197693%, 63.499451%)" offset="0.789062"/><stop stop-opacity="1" stop-color="rgb(19.198608%, 29.000854%, 63.305664%)" offset="0.792969"/><stop stop-opacity="1" stop-color="rgb(19.198608%, 28.999329%, 63.105774%)" offset="0.796875"/><stop stop-opacity="1" stop-color="rgb(19.198608%, 28.814697%, 63.09967%)" offset="0.800781"/><stop stop-opacity="1" stop-color="rgb(19.198608%, 28.614807%, 63.09967%)" offset="0.804688"/><stop stop-opacity="1" stop-color="rgb(19.198608%, 28.599548%, 62.924194%)" offset="0.808594"/><stop stop-opacity="1" stop-color="rgb(18.998718%, 28.399658%, 62.709045%)" offset="0.8125"/><stop stop-opacity="1" stop-color="rgb(18.798828%, 28.182983%, 62.533569%)" offset="0.816406"/><stop stop-opacity="1" stop-color="rgb(18.798828%, 27.978516%, 62.393188%)" offset="0.820312"/><stop stop-opacity="1" stop-color="rgb(18.798828%, 27.644348%, 62.193298%)" offset="0.828125"/><stop stop-opacity="1" stop-color="rgb(18.798828%, 27.311707%, 61.999512%)" offset="0.835938"/><stop stop-opacity="1" stop-color="rgb(18.615723%, 27.111816%, 61.816406%)" offset="0.84375"/><stop stop-opacity="1" stop-color="rgb(18.415833%, 27.099609%, 61.616516%)" offset="0.847656"/><stop stop-opacity="1" stop-color="rgb(18.399048%, 26.899719%, 61.599731%)" offset="0.851562"/><stop stop-opacity="1" stop-color="rgb(18.399048%, 26.699829%, 61.579895%)" offset="0.855469"/><stop stop-opacity="1" stop-color="rgb(18.399048%, 26.68457%, 61.380005%)" offset="0.859375"/><stop stop-opacity="1" stop-color="rgb(18.399048%, 26.48468%, 61.193848%)" offset="0.863281"/><stop stop-opacity="1" stop-color="rgb(18.399048%, 26.10321%, 60.993958%)" offset="0.871094"/><stop stop-opacity="1" stop-color="rgb(18.399048%, 25.90332%, 60.798645%)" offset="0.878906"/><stop stop-opacity="1" stop-color="rgb(18.399048%, 25.712585%, 60.612488%)" offset="0.882812"/><stop stop-opacity="1" stop-color="rgb(18.399048%, 25.512695%, 60.412598%)" offset="0.886719"/><stop stop-opacity="1" stop-color="rgb(18.399048%, 25.498962%, 60.398865%)" offset="0.890625"/><stop stop-opacity="1" stop-color="rgb(18.199158%, 25.299072%, 60.198975%)" offset="0.894531"/><stop stop-opacity="1" stop-color="rgb(17.999268%, 25.099182%, 59.999084%)" offset="0.898438"/><stop stop-opacity="1" stop-color="rgb(17.999268%, 25.086975%, 59.986877%)" offset="0.902344"/><stop stop-opacity="1" stop-color="rgb(17.999268%, 24.887085%, 59.786987%)" offset="0.90625"/><stop stop-opacity="1" stop-color="rgb(17.999268%, 24.505615%, 59.599304%)" offset="0.917969"/><stop stop-opacity="1" stop-color="rgb(17.999268%, 24.305725%, 59.410095%)" offset="0.921875"/><stop stop-opacity="1" stop-color="rgb(17.999268%, 24.119568%, 59.210205%)" offset="0.925781"/><stop stop-opacity="1" stop-color="rgb(17.823792%, 23.919678%, 59.199524%)" offset="0.933594"/><stop stop-opacity="1" stop-color="rgb(17.623901%, 23.698425%, 58.999634%)" offset="0.9375"/><stop stop-opacity="1" stop-color="rgb(17.599487%, 23.483276%, 58.799744%)" offset="0.941406"/><stop stop-opacity="1" stop-color="rgb(17.599487%, 23.283386%, 58.787537%)" offset="0.945312"/><stop stop-opacity="1" stop-color="rgb(17.599487%, 23.098755%, 58.587646%)" offset="0.949219"/><stop stop-opacity="1" stop-color="rgb(17.599487%, 22.906494%, 58.399963%)" offset="0.960938"/><stop stop-opacity="1" stop-color="rgb(17.459106%, 22.706604%, 58.21228%)" offset="0.964844"/><stop stop-opacity="1" stop-color="rgb(17.308044%, 22.564697%, 58.010864%)" offset="0.96875"/><stop stop-opacity="1" stop-color="rgb(17.298889%, 22.415161%, 57.798767%)" offset="0.976562"/><stop stop-opacity="1" stop-color="rgb(17.298889%, 22.380066%, 57.598877%)" offset="0.980469"/><stop stop-opacity="1" stop-color="rgb(17.298889%, 22.180176%, 57.449341%)" offset="0.984375"/><stop stop-opacity="1" stop-color="rgb(17.298889%, 21.998596%, 57.299805%)" offset="1"/></radialGradient><clipPath id="b3e93150b7"><path d="M 44.28125 86.691406 L 366.773438 86.691406 L 366.773438 246.109375 L 44.28125 246.109375 Z M 44.28125 86.691406 " clipRule="nonzero"/></clipPath><clipPath id="f802c2a55f"><path d="M 239.757812 224.820312 C 239.757812 224.820312 240.265625 225.140625 241.253906 225.761719 C 242.222656 226.410156 243.738281 227.25 245.660156 228.34375 C 249.5625 230.476562 255.535156 233.199219 263.394531 235.121094 C 271.214844 236.96875 281.136719 237.859375 291.746094 235.816406 C 293.148438 235.53125 294.710938 235.3125 296.046875 234.960938 C 297.324219 234.585938 298.621094 234.207031 299.933594 233.824219 C 301.222656 233.527344 302.59375 232.867188 303.945312 232.378906 C 305.308594 231.859375 306.691406 231.363281 308.007812 230.644531 C 313.421875 228.183594 318.679688 224.738281 323.472656 220.476562 C 333.085938 212.042969 340.917969 200.003906 343.824219 186.140625 C 344.105469 184.40625 344.394531 182.65625 344.683594 180.898438 C 344.890625 179.132812 344.949219 177.339844 345.113281 175.558594 L 345.15625 175.054688 C 345.148438 175.242188 345.191406 174.398438 345.140625 175.433594 L 345.125 174.640625 L 345.09375 173.050781 L 345.03125 169.855469 C 345.089844 167.496094 344.664062 166.160156 344.472656 164.445312 L 344.128906 161.960938 L 343.472656 159.285156 L 342.847656 156.601562 C 342.671875 155.695312 342.269531 154.851562 341.996094 153.96875 C 340.90625 150.441406 339.332031 147.050781 337.5625 143.765625 C 333.925781 137.238281 329.058594 131.277344 323.171875 126.425781 C 317.277344 121.585938 310.417969 117.863281 303.078125 115.570312 C 301.214844 115.097656 299.347656 114.625 297.480469 114.152344 L 291.75 113.304688 C 289.824219 113.132812 287.878906 113.152344 285.945312 113.035156 L 285.21875 113 C 284.75 113 285.652344 112.980469 285.476562 112.988281 L 285.25 112.996094 L 284.808594 113.015625 L 283.023438 113.082031 L 279.460938 113.222656 L 278.566406 113.253906 C 278.292969 113.273438 278.078125 113.3125 277.832031 113.339844 L 276.398438 113.511719 L 273.527344 113.828125 C 271.570312 114.078125 269.4375 114.53125 267.398438 114.859375 C 265.34375 115.292969 263.304688 115.84375 261.253906 116.3125 L 255.167969 118.167969 C 238.941406 123.519531 223.617188 132.894531 209.214844 143.554688 C 205.613281 146.238281 202.074219 149.015625 198.585938 151.863281 C 195.089844 154.667969 191.558594 157.605469 188.160156 160.511719 C 181.273438 166.382812 174.542969 172.433594 167.726562 178.320312 C 160.949219 184.191406 154.140625 190.152344 147.277344 195.621094 C 140.300781 201.183594 133.0625 206.679688 124.964844 211.019531 C 116.953125 215.390625 107.988281 218.648438 98.804688 219.515625 C 97.671875 219.667969 96.507812 219.644531 95.375 219.707031 L 93.667969 219.765625 C 94.015625 219.761719 92.957031 219.78125 93.003906 219.773438 L 92.824219 219.757812 L 91.753906 219.6875 C 90.804688 219.625 89.859375 219.5625 88.921875 219.5 C 87.839844 219.386719 86.519531 219.171875 85.347656 218.988281 C 82.839844 218.671875 80.859375 217.976562 78.722656 217.410156 C 76.664062 216.714844 74.648438 215.9375 72.742188 215.035156 C 65.125 211.332031 58.867188 206.101562 54.300781 200.167969 C 49.789062 194.179688 46.832031 187.605469 45.476562 181.179688 C 44.105469 174.789062 44.25 168.433594 45.214844 163.261719 C 46.117188 157.847656 47.785156 153.191406 49.6875 149.199219 C 51.585938 145.214844 53.753906 141.945312 55.859375 139.320312 C 57.960938 136.691406 59.933594 134.652344 61.640625 133.125 C 62.464844 132.339844 63.246094 131.703125 63.929688 131.164062 C 64.59375 130.613281 65.179688 130.179688 65.660156 129.847656 C 66.609375 129.164062 67.097656 128.8125 67.097656 128.8125 C 67.097656 128.8125 66.703125 129.265625 65.933594 130.140625 C 65.160156 131.003906 64.082031 132.351562 62.773438 134.144531 C 60.152344 137.703125 56.8125 143.382812 54.671875 151.082031 C 53.660156 154.921875 52.871094 159.296875 52.890625 163.945312 C 52.859375 168.796875 53.492188 173.53125 55.324219 178.363281 C 57.144531 183.136719 60.035156 187.8125 64.011719 191.78125 C 68.011719 195.710938 73.027344 198.941406 78.621094 200.835938 C 79.292969 201.136719 80.046875 201.226562 80.75 201.441406 C 81.472656 201.605469 82.167969 201.875 82.90625 201.976562 C 84.347656 202.171875 85.921875 202.554688 87.144531 202.515625 C 87.828125 202.535156 88.359375 202.621094 89.15625 202.632812 C 90.097656 202.59375 91.042969 202.558594 91.996094 202.523438 L 92.707031 202.496094 L 93.066406 202.480469 L 93.246094 202.476562 C 93.410156 202.472656 92.46875 202.476562 92.933594 202.464844 L 94.085938 202.285156 C 94.855469 202.148438 95.628906 202.113281 96.398438 201.90625 C 102.550781 200.636719 108.75 197.914062 114.808594 193.828125 C 120.886719 189.828125 126.894531 184.726562 132.980469 179.042969 C 139.171875 173.226562 145.402344 167.308594 151.804688 161.023438 C 158.171875 154.757812 164.785156 148.386719 171.683594 141.984375 C 178.566406 135.558594 185.828125 129.1875 193.597656 123.121094 C 209.023438 110.953125 226.652344 99.851562 246.789062 93.015625 C 256.929688 89.703125 267.273438 87.570312 278.546875 86.960938 L 282.113281 86.851562 L 283.898438 86.796875 L 284.34375 86.78125 L 284.5625 86.773438 C 284.546875 86.777344 285.585938 86.761719 285.265625 86.773438 L 286.320312 86.828125 C 289.125 87.015625 291.933594 87.109375 294.710938 87.4375 C 297.480469 87.902344 300.253906 88.332031 302.984375 88.886719 C 305.683594 89.621094 308.375 90.363281 311.042969 91.152344 C 332.257812 98.230469 349.464844 114.1875 358.414062 133.074219 C 360.636719 137.800781 362.515625 142.648438 363.761719 147.617188 C 364.074219 148.859375 364.511719 150.066406 364.707031 151.324219 L 365.347656 155.074219 C 365.546875 156.320312 365.746094 157.5625 365.945312 158.800781 C 366.066406 160.109375 366.132812 161.460938 366.210938 162.78125 C 366.332031 165.367188 366.578125 168.296875 366.363281 170.210938 L 366.191406 173.398438 L 366.109375 174.988281 L 366.066406 175.777344 C 366.019531 176.949219 366.035156 176.234375 366.015625 176.550781 L 365.980469 176.777344 L 365.914062 177.230469 C 365.550781 179.628906 365.257812 182.023438 364.796875 184.363281 C 364.226562 186.6875 363.664062 188.992188 363.03125 191.25 C 360.28125 200.25 356.003906 208.414062 350.75 215.34375 C 345.484375 222.273438 339.355469 228.066406 332.820312 232.578125 C 326.277344 237.074219 319.441406 240.507812 312.589844 242.5625 C 310.914062 243.183594 309.1875 243.5625 307.5 243.957031 C 305.789062 244.328125 304.21875 244.828125 302.445312 245.019531 C 300.726562 245.261719 299.035156 245.5 297.367188 245.730469 C 295.75 245.910156 294.347656 245.871094 292.863281 245.949219 C 280.246094 246.453125 269.671875 243.613281 261.703125 240.140625 C 253.699219 236.636719 248.296875 232.476562 244.804688 229.59375 C 243.066406 228.105469 241.808594 226.910156 241.003906 226.074219 C 240.179688 225.246094 239.757812 224.820312 239.757812 224.820312 Z M 239.757812 224.820312 " clipRule="nonzero"/></clipPath><clipPath id="4c493169f9"><path d="M 239.757812 224.820312 C 239.757812 224.820312 240.265625 225.140625 241.253906 225.761719 C 242.222656 226.410156 243.738281 227.25 245.660156 228.34375 C 249.5625 230.476562 255.535156 233.199219 263.394531 235.121094 C 271.214844 236.96875 281.136719 237.859375 291.746094 235.816406 C 293.148438 235.53125 294.710938 235.3125 296.046875 234.960938 C 297.324219 234.585938 298.621094 234.207031 299.933594 233.824219 C 301.222656 233.527344 302.59375 232.867188 303.945312 232.378906 C 305.308594 231.859375 306.691406 231.363281 308.007812 230.644531 C 313.421875 228.183594 318.679688 224.738281 323.472656 220.476562 C 333.085938 212.042969 340.917969 200.003906 343.824219 186.140625 C 344.105469 184.40625 344.394531 182.65625 344.683594 180.898438 C 344.890625 179.132812 344.949219 177.339844 345.113281 175.558594 L 345.15625 175.054688 C 345.148438 175.242188 345.191406 174.398438 345.140625 175.433594 L 345.125 174.640625 L 345.09375 173.050781 L 345.03125 169.855469 C 345.089844 167.496094 344.664062 166.160156 344.472656 164.445312 L 344.128906 161.960938 L 343.472656 159.285156 L 342.847656 156.601562 C 342.671875 155.695312 342.269531 154.851562 341.996094 153.96875 C 340.90625 150.441406 339.332031 147.050781 337.5625 143.765625 C 333.925781 137.238281 329.058594 131.277344 323.171875 126.425781 C 317.277344 121.585938 310.417969 117.863281 303.078125 115.570312 C 301.214844 115.097656 299.347656 114.625 297.480469 114.152344 L 291.75 113.304688 C 289.824219 113.132812 287.878906 113.152344 285.945312 113.035156 L 285.21875 113 C 284.75 113 285.652344 112.980469 285.476562 112.988281 L 285.25 112.996094 L 284.808594 113.015625 L 283.023438 113.082031 L 279.460938 113.222656 L 278.566406 113.253906 C 278.292969 113.273438 278.078125 113.3125 277.832031 113.339844 L 276.398438 113.511719 L 273.527344 113.828125 C 271.570312 114.078125 269.4375 114.53125 267.398438 114.859375 C 265.34375 115.292969 263.304688 115.84375 261.253906 116.3125 L 255.167969 118.167969 C 238.941406 123.519531 223.617188 132.894531 209.214844 143.554688 C 205.613281 146.238281 202.074219 149.015625 198.585938 151.863281 C 195.089844 154.667969 191.558594 157.605469 188.160156 160.511719 C 181.273438 166.382812 174.542969 172.433594 167.726562 178.320312 C 160.949219 184.191406 154.140625 190.152344 147.277344 195.621094 C 140.300781 201.183594 133.0625 206.679688 124.964844 211.019531 C 116.953125 215.390625 107.988281 218.648438 98.804688 219.515625 C 97.671875 219.667969 96.507812 219.644531 95.375 219.707031 L 93.667969 219.765625 C 94.015625 219.761719 92.957031 219.78125 93.003906 219.773438 L 92.824219 219.757812 L 91.753906 219.6875 C 90.804688 219.625 89.859375 219.5625 88.921875 219.5 C 87.839844 219.386719 86.519531 219.171875 85.347656 218.988281 C 82.839844 218.671875 80.859375 217.976562 78.722656 217.410156 C 76.664062 216.714844 74.648438 215.9375 72.742188 215.035156 C 65.125 211.332031 58.867188 206.101562 54.300781 200.167969 C 49.789062 194.179688 46.832031 187.605469 45.476562 181.179688 C 44.105469 174.789062 44.25 168.433594 45.214844 163.261719 C 46.117188 157.847656 47.785156 153.191406 49.6875 149.199219 C 51.585938 145.214844 53.753906 141.945312 55.859375 139.320312 C 57.960938 136.691406 59.933594 134.652344 61.640625 133.125 C 62.464844 132.339844 63.246094 131.703125 63.929688 131.164062 C 64.59375 130.613281 65.179688 130.179688 65.660156 129.847656 C 66.609375 129.164062 67.097656 128.8125 67.097656 128.8125 C 67.097656 128.8125 66.703125 129.265625 65.933594 130.140625 C 65.160156 131.003906 64.082031 132.351562 62.773438 134.144531 C 60.152344 137.703125 56.8125 143.382812 54.671875 151.082031 C 53.660156 154.921875 52.871094 159.296875 52.890625 163.945312 C 52.859375 168.796875 53.492188 173.53125 55.324219 178.363281 C 57.144531 183.136719 60.035156 187.8125 64.011719 191.78125 C 68.011719 195.710938 73.027344 198.941406 78.621094 200.835938 C 79.292969 201.136719 80.046875 201.226562 80.75 201.441406 C 81.472656 201.605469 82.167969 201.875 82.90625 201.976562 C 84.347656 202.171875 85.921875 202.554688 87.144531 202.515625 C 87.828125 202.535156 88.359375 202.621094 89.15625 202.632812 C 90.097656 202.59375 91.042969 202.558594 91.996094 202.523438 L 92.707031 202.496094 L 93.066406 202.480469 L 93.246094 202.476562 C 93.410156 202.472656 92.46875 202.476562 92.933594 202.464844 L 94.085938 202.285156 C 94.855469 202.148438 95.628906 202.113281 96.398438 201.90625 C 102.550781 200.636719 108.75 197.914062 114.808594 193.828125 C 120.886719 189.828125 126.894531 184.726562 132.980469 179.042969 C 139.171875 173.226562 145.402344 167.308594 151.804688 161.023438 C 158.171875 154.757812 164.785156 148.386719 171.683594 141.984375 C 178.566406 135.558594 185.828125 129.1875 193.597656 123.121094 C 209.023438 110.953125 226.652344 99.851562 246.789062 93.015625 C 256.929688 89.703125 267.273438 87.570312 278.546875 86.960938 L 282.113281 86.851562 L 283.898438 86.796875 L 284.34375 86.78125 L 284.5625 86.773438 C 284.546875 86.777344 285.585938 86.761719 285.265625 86.773438 L 286.320312 86.828125 C 289.125 87.015625 291.933594 87.109375 294.710938 87.4375 C 297.480469 87.902344 300.253906 88.332031 302.984375 88.886719 C 305.683594 89.621094 308.375 90.363281 311.042969 91.152344 C 332.257812 98.230469 349.464844 114.1875 358.414062 133.074219 C 360.636719 137.800781 362.515625 142.648438 363.761719 147.617188 C 364.074219 148.859375 364.511719 150.066406 364.707031 151.324219 L 365.347656 155.074219 C 365.546875 156.320312 365.746094 157.5625 365.945312 158.800781 C 366.066406 160.109375 366.132812 161.460938 366.210938 162.78125 C 366.332031 165.367188 366.578125 168.296875 366.363281 170.210938 L 366.191406 173.398438 L 366.109375 174.988281 L 366.066406 175.777344 C 366.019531 176.949219 366.035156 176.234375 366.015625 176.550781 L 365.980469 176.777344 L 365.914062 177.230469 C 365.550781 179.628906 365.257812 182.023438 364.796875 184.363281 C 364.226562 186.6875 363.664062 188.992188 363.03125 191.25 C 360.28125 200.25 356.003906 208.414062 350.75 215.34375 C 345.484375 222.273438 339.355469 228.066406 332.820312 232.578125 C 326.277344 237.074219 319.441406 240.507812 312.589844 242.5625 C 310.914062 243.183594 309.1875 243.5625 307.5 243.957031 C 305.789062 244.328125 304.21875 244.828125 302.445312 245.019531 C 300.726562 245.261719 299.035156 245.5 297.367188 245.730469 C 295.75 245.910156 294.347656 245.871094 292.863281 245.949219 C 280.246094 246.453125 269.671875 243.613281 261.703125 240.140625 C 253.699219 236.636719 248.296875 232.476562 244.804688 229.59375 C 243.066406 228.105469 241.808594 226.910156 241.003906 226.074219 C 240.179688 225.246094 239.757812 224.820312 239.757812 224.820312 " clipRule="nonzero"/></clipPath><clipPath id="7a8dbf9b46"><path d="M 439.675781 134.597656 L 140.710938 -61.058594 L -28.996094 198.613281 L 269.972656 394.269531 Z M 439.675781 134.597656 " clipRule="nonzero"/></clipPath><radialGradient gradientTransform="matrix(-0.547136, 0.837213, -0.836621, -0.547523, 241.572559, 33.308049)" gradientUnits="userSpaceOnUse" r="297.52893" cx="0" id="866b967976" cy="0" fx="0" fy="0"><stop stop-opacity="1" stop-color="rgb(0.193787%, 67.799377%, 93.699646%)" offset="0"/><stop stop-opacity="1" stop-color="rgb(0.393677%, 67.658997%, 93.513489%)" offset="0.0078125"/><stop stop-opacity="1" stop-color="rgb(0.39978%, 67.50946%, 93.313599%)" offset="0.0117188"/><stop stop-opacity="1" stop-color="rgb(0.39978%, 67.498779%, 93.299866%)" offset="0.015625"/><stop stop-opacity="1" stop-color="rgb(0.59967%, 67.498779%, 93.299866%)" offset="0.0195312"/><stop stop-opacity="1" stop-color="rgb(0.799561%, 67.481995%, 93.299866%)" offset="0.0234375"/><stop stop-opacity="1" stop-color="rgb(0.799561%, 67.282104%, 93.286133%)" offset="0.0273438"/><stop stop-opacity="1" stop-color="rgb(0.80719%, 67.098999%, 93.086243%)" offset="0.03125"/><stop stop-opacity="1" stop-color="rgb(1.00708%, 67.098999%, 92.89856%)" offset="0.0351562"/><stop stop-opacity="1" stop-color="rgb(1.199341%, 66.90979%, 92.89856%)" offset="0.046875"/><stop stop-opacity="1" stop-color="rgb(1.199341%, 66.7099%, 92.89856%)" offset="0.0507812"/><stop stop-opacity="1" stop-color="rgb(1.199341%, 66.699219%, 92.718506%)" offset="0.0546875"/><stop stop-opacity="1" stop-color="rgb(1.373291%, 66.699219%, 92.518616%)" offset="0.0585938"/><stop stop-opacity="1" stop-color="rgb(1.573181%, 66.677856%, 92.498779%)" offset="0.0625"/><stop stop-opacity="1" stop-color="rgb(1.61438%, 66.477966%, 92.498779%)" offset="0.0664062"/><stop stop-opacity="1" stop-color="rgb(1.81427%, 66.299438%, 92.349243%)" offset="0.0703125"/><stop stop-opacity="1" stop-color="rgb(1.998901%, 66.299438%, 92.199707%)" offset="0.0820312"/><stop stop-opacity="1" stop-color="rgb(2.191162%, 66.107178%, 92.199707%)" offset="0.0859375"/><stop stop-opacity="1" stop-color="rgb(2.391052%, 65.907288%, 92.021179%)" offset="0.0898438"/><stop stop-opacity="1" stop-color="rgb(2.415466%, 65.875244%, 91.821289%)" offset="0.101562"/><stop stop-opacity="1" stop-color="rgb(2.566528%, 65.675354%, 91.799927%)" offset="0.105469"/><stop stop-opacity="1" stop-color="rgb(2.703857%, 65.499878%, 91.793823%)" offset="0.117188"/><stop stop-opacity="1" stop-color="rgb(2.903748%, 65.499878%, 91.593933%)" offset="0.121094"/><stop stop-opacity="1" stop-color="rgb(3.09906%, 65.304565%, 91.398621%)" offset="0.125"/><stop stop-opacity="1" stop-color="rgb(3.09906%, 65.103149%, 91.398621%)" offset="0.128906"/><stop stop-opacity="1" stop-color="rgb(3.09906%, 65.098572%, 91.398621%)" offset="0.140625"/><stop stop-opacity="1" stop-color="rgb(3.29895%, 64.898682%, 91.19873%)" offset="0.144531"/><stop stop-opacity="1" stop-color="rgb(3.49884%, 64.698792%, 90.99884%)" offset="0.148438"/><stop stop-opacity="1" stop-color="rgb(3.511047%, 64.698792%, 90.99884%)" offset="0.152344"/><stop stop-opacity="1" stop-color="rgb(3.710938%, 64.698792%, 90.99884%)" offset="0.15625"/><stop stop-opacity="1" stop-color="rgb(3.898621%, 64.69574%, 90.99884%)" offset="0.160156"/><stop stop-opacity="1" stop-color="rgb(3.898621%, 64.497375%, 90.99884%)" offset="0.164062"/><stop stop-opacity="1" stop-color="rgb(4.092407%, 64.300537%, 90.805054%)" offset="0.167969"/><stop stop-opacity="1" stop-color="rgb(4.292297%, 64.299011%, 90.605164%)" offset="0.171875"/><stop stop-opacity="1" stop-color="rgb(4.299927%, 64.123535%, 90.59906%)" offset="0.183594"/><stop stop-opacity="1" stop-color="rgb(4.319763%, 63.923645%, 90.577698%)" offset="0.1875"/><stop stop-opacity="1" stop-color="rgb(4.525757%, 63.893127%, 90.377808%)" offset="0.191406"/><stop stop-opacity="1" stop-color="rgb(4.905701%, 63.693237%, 90.19928%)" offset="0.203125"/><stop stop-opacity="1" stop-color="rgb(5.28717%, 63.499451%, 90.011597%)" offset="0.214844"/><stop stop-opacity="1" stop-color="rgb(5.487061%, 63.499451%, 89.811707%)" offset="0.21875"/><stop stop-opacity="1" stop-color="rgb(5.499268%, 63.320923%, 89.7995%)" offset="0.222656"/><stop stop-opacity="1" stop-color="rgb(5.499268%, 63.121033%, 89.7995%)" offset="0.226562"/><stop stop-opacity="1" stop-color="rgb(5.499268%, 63.09967%, 89.779663%)" offset="0.230469"/><stop stop-opacity="1" stop-color="rgb(5.513%, 63.084412%, 89.579773%)" offset="0.234375"/><stop stop-opacity="1" stop-color="rgb(5.712891%, 62.884521%, 89.399719%)" offset="0.238281"/><stop stop-opacity="1" stop-color="rgb(6.09436%, 62.69989%, 89.399719%)" offset="0.25"/><stop stop-opacity="1" stop-color="rgb(6.29425%, 62.554932%, 89.205933%)" offset="0.253906"/><stop stop-opacity="1" stop-color="rgb(6.298828%, 62.40387%, 89.006042%)" offset="0.261719"/><stop stop-opacity="1" stop-color="rgb(6.396484%, 62.30011%, 88.999939%)" offset="0.269531"/><stop stop-opacity="1" stop-color="rgb(6.596375%, 62.10022%, 88.893127%)" offset="0.273438"/><stop stop-opacity="1" stop-color="rgb(6.800842%, 61.999512%, 88.691711%)" offset="0.28125"/><stop stop-opacity="1" stop-color="rgb(7.000732%, 61.901855%, 88.598633%)" offset="0.289062"/><stop stop-opacity="1" stop-color="rgb(7.191467%, 61.701965%, 88.50708%)" offset="0.296875"/><stop stop-opacity="1" stop-color="rgb(7.391357%, 61.499023%, 88.30719%)" offset="0.304688"/><stop stop-opacity="1" stop-color="rgb(7.580566%, 61.299133%, 88.198853%)" offset="0.3125"/><stop stop-opacity="1" stop-color="rgb(7.730103%, 61.199951%, 88.095093%)" offset="0.320312"/><stop stop-opacity="1" stop-color="rgb(7.798767%, 61.196899%, 87.895203%)" offset="0.328125"/><stop stop-opacity="1" stop-color="rgb(7.798767%, 61.000061%, 87.799072%)" offset="0.332031"/><stop stop-opacity="1" stop-color="rgb(7.798767%, 60.614014%, 87.658691%)" offset="0.335938"/><stop stop-opacity="1" stop-color="rgb(7.981873%, 60.411072%, 87.509155%)" offset="0.34375"/><stop stop-opacity="1" stop-color="rgb(8.280945%, 60.299683%, 87.5%)" offset="0.347656"/><stop stop-opacity="1" stop-color="rgb(8.49762%, 60.099792%, 87.391663%)" offset="0.355469"/><stop stop-opacity="1" stop-color="rgb(8.702087%, 59.999084%, 87.191772%)" offset="0.363281"/><stop stop-opacity="1" stop-color="rgb(8.901978%, 59.901428%, 87.098694%)" offset="0.371094"/><stop stop-opacity="1" stop-color="rgb(8.999634%, 59.701538%, 87.005615%)" offset="0.378906"/><stop stop-opacity="1" stop-color="rgb(9.100342%, 59.498596%, 86.805725%)" offset="0.386719"/><stop stop-opacity="1" stop-color="rgb(9.300232%, 59.298706%, 86.698914%)" offset="0.394531"/><stop stop-opacity="1" stop-color="rgb(9.503174%, 59.095764%, 86.595154%)" offset="0.402344"/><stop stop-opacity="1" stop-color="rgb(9.703064%, 58.80127%, 86.300659%)" offset="0.410156"/><stop stop-opacity="1" stop-color="rgb(9.889221%, 58.505249%, 86.004639%)" offset="0.425781"/><stop stop-opacity="1" stop-color="rgb(10.076904%, 58.399963%, 85.899353%)" offset="0.433594"/><stop stop-opacity="1" stop-color="rgb(10.284424%, 58.399963%, 85.899353%)" offset="0.4375"/><stop stop-opacity="1" stop-color="rgb(10.496521%, 58.293152%, 85.794067%)" offset="0.441406"/><stop stop-opacity="1" stop-color="rgb(10.699463%, 58.093262%, 85.594177%)" offset="0.449219"/><stop stop-opacity="1" stop-color="rgb(10.899353%, 57.902527%, 85.499573%)" offset="0.457031"/><stop stop-opacity="1" stop-color="rgb(10.998535%, 57.702637%, 85.40802%)" offset="0.464844"/><stop stop-opacity="1" stop-color="rgb(11.097717%, 57.524109%, 85.20813%)" offset="0.472656"/><stop stop-opacity="1" stop-color="rgb(11.297607%, 57.272339%, 84.996033%)" offset="0.480469"/><stop stop-opacity="1" stop-color="rgb(11.497498%, 56.996155%, 84.796143%)" offset="0.496094"/><stop stop-opacity="1" stop-color="rgb(11.697388%, 56.716919%, 84.698486%)" offset="0.503906"/><stop stop-opacity="1" stop-color="rgb(11.975098%, 56.517029%, 84.521484%)" offset="0.515625"/><stop stop-opacity="1" stop-color="rgb(12.184143%, 56.486511%, 84.321594%)" offset="0.519531"/><stop stop-opacity="1" stop-color="rgb(12.358093%, 56.286621%, 84.298706%)" offset="0.53125"/><stop stop-opacity="1" stop-color="rgb(12.5%, 56.098938%, 84.295654%)" offset="0.535156"/><stop stop-opacity="1" stop-color="rgb(12.5%, 56.098938%, 84.09729%)" offset="0.539062"/><stop stop-opacity="1" stop-color="rgb(12.5%, 56.098938%, 83.900452%)" offset="0.542969"/><stop stop-opacity="1" stop-color="rgb(12.5%, 55.909729%, 83.898926%)" offset="0.546875"/><stop stop-opacity="1" stop-color="rgb(12.5%, 55.709839%, 83.898926%)" offset="0.550781"/><stop stop-opacity="1" stop-color="rgb(12.678528%, 55.699158%, 83.898926%)" offset="0.554688"/><stop stop-opacity="1" stop-color="rgb(12.878418%, 55.699158%, 83.898926%)" offset="0.558594"/><stop stop-opacity="1" stop-color="rgb(12.919617%, 55.677795%, 83.699036%)" offset="0.5625"/><stop stop-opacity="1" stop-color="rgb(13.119507%, 55.471802%, 83.499146%)" offset="0.566406"/><stop stop-opacity="1" stop-color="rgb(13.299561%, 55.093384%, 83.49762%)" offset="0.578125"/><stop stop-opacity="1" stop-color="rgb(13.299561%, 54.899597%, 83.300781%)" offset="0.582031"/><stop stop-opacity="1" stop-color="rgb(13.299561%, 54.899597%, 83.102417%)" offset="0.585938"/><stop stop-opacity="1" stop-color="rgb(13.487244%, 54.899597%, 83.099365%)" offset="0.589844"/><stop stop-opacity="1" stop-color="rgb(13.687134%, 54.899597%, 83.099365%)" offset="0.59375"/><stop stop-opacity="1" stop-color="rgb(13.699341%, 54.721069%, 83.099365%)" offset="0.597656"/><stop stop-opacity="1" stop-color="rgb(13.722229%, 54.521179%, 83.074951%)" offset="0.601562"/><stop stop-opacity="1" stop-color="rgb(13.922119%, 54.499817%, 82.875061%)" offset="0.605469"/><stop stop-opacity="1" stop-color="rgb(14.099121%, 54.484558%, 82.699585%)" offset="0.609375"/><stop stop-opacity="1" stop-color="rgb(14.099121%, 54.284668%, 82.699585%)" offset="0.613281"/><stop stop-opacity="1" stop-color="rgb(14.103699%, 54.098511%, 82.699585%)" offset="0.617188"/><stop stop-opacity="1" stop-color="rgb(14.303589%, 54.003906%, 82.548523%)" offset="0.621094"/><stop stop-opacity="1" stop-color="rgb(14.588928%, 53.804016%, 82.398987%)" offset="0.632812"/><stop stop-opacity="1" stop-color="rgb(14.788818%, 53.601074%, 82.299805%)" offset="0.640625"/><stop stop-opacity="1" stop-color="rgb(15.005493%, 53.401184%, 82.099915%)" offset="0.648438"/><stop stop-opacity="1" stop-color="rgb(15.205383%, 53.196716%, 81.999207%)" offset="0.65625"/><stop stop-opacity="1" stop-color="rgb(15.299988%, 52.996826%, 81.90155%)" offset="0.664062"/><stop stop-opacity="1" stop-color="rgb(15.391541%, 52.806091%, 81.70166%)" offset="0.671875"/><stop stop-opacity="1" stop-color="rgb(15.591431%, 52.606201%, 81.599426%)" offset="0.679688"/><stop stop-opacity="1" stop-color="rgb(15.80658%, 52.418518%, 81.491089%)" offset="0.6875"/><stop stop-opacity="1" stop-color="rgb(16.00647%, 52.1698%, 81.193542%)" offset="0.695312"/><stop stop-opacity="1" stop-color="rgb(16.192627%, 51.899719%, 80.900574%)" offset="0.710938"/><stop stop-opacity="1" stop-color="rgb(16.392517%, 51.696777%, 80.799866%)" offset="0.71875"/><stop stop-opacity="1" stop-color="rgb(16.607666%, 51.496887%, 80.690002%)" offset="0.726562"/><stop stop-opacity="1" stop-color="rgb(16.807556%, 51.293945%, 80.488586%)" offset="0.734375"/><stop stop-opacity="1" stop-color="rgb(16.998291%, 51.094055%, 80.39856%)" offset="0.742188"/><stop stop-opacity="1" stop-color="rgb(17.198181%, 50.999451%, 80.39856%)" offset="0.75"/><stop stop-opacity="1" stop-color="rgb(17.298889%, 50.813293%, 80.212402%)" offset="0.757812"/><stop stop-opacity="1" stop-color="rgb(17.448425%, 50.590515%, 80.012512%)" offset="0.761719"/><stop stop-opacity="1" stop-color="rgb(17.599487%, 50.376892%, 79.998779%)" offset="0.773438"/><stop stop-opacity="1" stop-color="rgb(17.599487%, 50.19989%, 79.986572%)" offset="0.777344"/><stop stop-opacity="1" stop-color="rgb(17.599487%, 50.19989%, 79.786682%)" offset="0.78125"/><stop stop-opacity="1" stop-color="rgb(17.599487%, 50.195312%, 79.598999%)" offset="0.785156"/><stop stop-opacity="1" stop-color="rgb(17.599487%, 49.996948%, 79.598999%)" offset="0.789062"/><stop stop-opacity="1" stop-color="rgb(17.793274%, 49.80011%, 79.598999%)" offset="0.792969"/><stop stop-opacity="1" stop-color="rgb(17.993164%, 49.798584%, 79.598999%)" offset="0.796875"/><stop stop-opacity="1" stop-color="rgb(17.999268%, 49.798584%, 79.414368%)" offset="0.800781"/><stop stop-opacity="1" stop-color="rgb(17.999268%, 49.61853%, 79.214478%)" offset="0.804688"/><stop stop-opacity="1" stop-color="rgb(18.173218%, 49.41864%, 79.199219%)" offset="0.808594"/><stop stop-opacity="1" stop-color="rgb(18.383789%, 49.388123%, 79.188538%)" offset="0.8125"/><stop stop-opacity="1" stop-color="rgb(18.608093%, 49.188232%, 78.988647%)" offset="0.816406"/><stop stop-opacity="1" stop-color="rgb(18.798828%, 48.997498%, 78.799438%)" offset="0.824219"/><stop stop-opacity="1" stop-color="rgb(18.798828%, 48.802185%, 78.799438%)" offset="0.832031"/><stop stop-opacity="1" stop-color="rgb(18.989563%, 48.602295%, 78.607178%)" offset="0.839844"/><stop stop-opacity="1" stop-color="rgb(19.189453%, 48.497009%, 78.407288%)" offset="0.847656"/><stop stop-opacity="1" stop-color="rgb(19.198608%, 48.297119%, 78.399658%)" offset="0.851562"/><stop stop-opacity="1" stop-color="rgb(19.303894%, 48.094177%, 78.294373%)" offset="0.859375"/><stop stop-opacity="1" stop-color="rgb(19.503784%, 47.894287%, 78.094482%)" offset="0.867188"/><stop stop-opacity="1" stop-color="rgb(19.784546%, 47.659302%, 77.999878%)" offset="0.882812"/><stop stop-opacity="1" stop-color="rgb(19.984436%, 47.509766%, 77.818298%)" offset="0.886719"/><stop stop-opacity="1" stop-color="rgb(19.999695%, 47.499084%, 77.616882%)" offset="0.890625"/><stop stop-opacity="1" stop-color="rgb(20.021057%, 47.476196%, 77.598572%)" offset="0.894531"/><stop stop-opacity="1" stop-color="rgb(20.220947%, 47.273254%, 77.449036%)" offset="0.898438"/><stop stop-opacity="1" stop-color="rgb(20.399475%, 46.896362%, 77.2995%)" offset="0.910156"/><stop stop-opacity="1" stop-color="rgb(20.593262%, 46.699524%, 77.2995%)" offset="0.917969"/><stop stop-opacity="1" stop-color="rgb(20.793152%, 46.508789%, 77.108765%)" offset="0.925781"/><stop stop-opacity="1" stop-color="rgb(20.799255%, 46.289062%, 76.908875%)" offset="0.933594"/><stop stop-opacity="1" stop-color="rgb(20.799255%, 46.078491%, 76.899719%)" offset="0.941406"/><stop stop-opacity="1" stop-color="rgb(20.809937%, 45.899963%, 76.899719%)" offset="0.945312"/><stop stop-opacity="1" stop-color="rgb(21.009827%, 45.892334%, 76.89209%)" offset="0.949219"/><stop stop-opacity="1" stop-color="rgb(21.199036%, 45.692444%, 76.6922%)" offset="0.953125"/><stop stop-opacity="1" stop-color="rgb(21.395874%, 45.498657%, 76.499939%)" offset="0.957031"/><stop stop-opacity="1" stop-color="rgb(21.594238%, 45.307922%, 76.499939%)" offset="0.964844"/><stop stop-opacity="1" stop-color="rgb(21.598816%, 45.108032%, 76.321411%)" offset="0.972656"/><stop stop-opacity="1" stop-color="rgb(21.798706%, 45.08667%, 76.119995%)" offset="0.976562"/><stop stop-opacity="1" stop-color="rgb(21.998596%, 44.88678%, 76.098633%)" offset="0.980469"/><stop stop-opacity="1" stop-color="rgb(21.998596%, 44.699097%, 76.094055%)" offset="0.988281"/><stop stop-opacity="1" stop-color="rgb(21.998596%, 44.699097%, 75.894165%)" offset="0.992188"/><stop stop-opacity="1" stop-color="rgb(21.998596%, 44.699097%, 75.698853%)" offset="1"/></radialGradient></defs><g clipPath="url(#db89b57868)"><g clipPath="url(#aaf2d44638)"><g clipPath="url(#f5d0e35dff)"><g clipPath="url(#b470d61d8f)"><path fill="url(#ce97e147c3)" d="M 431.847656 107.449219 L 105.785156 -105.941406 L -90.058594 193.730469 L 236.003906 407.121094 Z M 431.847656 107.449219 " fillRule="nonzero"/></g></g></g></g><g clipPath="url(#b3e93150b7)"><g clipPath="url(#f802c2a55f)"><g clipPath="url(#4c493169f9)"><g clipPath="url(#7a8dbf9b46)"><path fill="url(#866b967976)" d="M 439.519531 134.5 L 140.832031 -60.976562 L -28.65625 198.375 L 270.027344 393.847656 Z M 439.519531 134.5 " fillRule="nonzero"/></g></g></g></g><g fill="#004aad" fill-opacity="1"><g transform="translate(16.308748, 316.98214)"><g><path d="M 20.3125 -44.1875 L 29.21875 -44.1875 L 48.015625 0 L 37.921875 0 L 33.90625 -9.84375 L 15.359375 -9.84375 L 11.34375 0 L 1.5 0 Z M 30.46875 -18.375 L 24.640625 -32.59375 L 18.8125 -18.375 Z M 30.46875 -18.375 "/></g></g></g><g fill="#004aad" fill-opacity="1"><g transform="translate(65.830665, 316.98214)"><g><path d="M 5.265625 -43.875 L 15.671875 -43.875 L 27.203125 -25.328125 L 38.734375 -43.875 L 49.140625 -43.875 L 49.140625 0 L 39.5625 0 L 39.5625 -28.640625 L 27.203125 -9.90625 L 26.953125 -9.90625 L 14.734375 -28.453125 L 14.734375 0 L 5.265625 0 Z M 5.265625 -43.875 "/></g></g></g><g fill="#004aad" fill-opacity="1"><g transform="translate(120.242089, 316.98214)"><g/></g></g><g fill="#004aad" fill-opacity="1"><g transform="translate(139.047875, 316.98214)"><g><path d="M 5.265625 -43.875 L 22.375 -43.875 C 25.800781 -43.875 28.945312 -43.320312 31.8125 -42.21875 C 34.675781 -41.113281 37.140625 -39.578125 39.203125 -37.609375 C 41.273438 -35.648438 42.875 -33.34375 44 -30.6875 C 45.132812 -28.03125 45.703125 -25.15625 45.703125 -22.0625 L 45.703125 -21.9375 C 45.703125 -18.84375 45.132812 -15.957031 44 -13.28125 C 42.875 -10.613281 41.273438 -8.296875 39.203125 -6.328125 C 37.140625 -4.367188 34.675781 -2.820312 31.8125 -1.6875 C 28.945312 -0.5625 25.800781 0 22.375 0 L 5.265625 0 Z M 14.921875 -35.171875 L 14.921875 -8.71875 L 22.375 -8.71875 C 24.34375 -8.71875 26.140625 -9.03125 27.765625 -9.65625 C 29.398438 -10.28125 30.789062 -11.175781 31.9375 -12.34375 C 33.082031 -13.519531 33.976562 -14.898438 34.625 -16.484375 C 35.28125 -18.078125 35.609375 -19.851562 35.609375 -21.8125 L 35.609375 -21.9375 C 35.609375 -23.863281 35.28125 -25.640625 34.625 -27.265625 C 33.976562 -28.898438 33.082031 -30.300781 31.9375 -31.46875 C 30.789062 -32.632812 29.398438 -33.539062 27.765625 -34.1875 C 26.140625 -34.84375 24.34375 -35.171875 22.375 -35.171875 Z M 14.921875 -35.171875 "/></g></g></g><g fill="#004aad" fill-opacity="1"><g transform="translate(188.068309, 316.98214)"><g><path d="M 20.1875 0.75 C 17.675781 0.75 15.34375 0.332031 13.1875 -0.5 C 11.039062 -1.332031 9.179688 -2.519531 7.609375 -4.0625 C 6.046875 -5.613281 4.828125 -7.441406 3.953125 -9.546875 C 3.078125 -11.660156 2.640625 -14.015625 2.640625 -16.609375 L 2.640625 -16.734375 C 2.640625 -19.117188 3.046875 -21.375 3.859375 -23.5 C 4.671875 -25.632812 5.804688 -27.492188 7.265625 -29.078125 C 8.734375 -30.671875 10.476562 -31.925781 12.5 -32.84375 C 14.53125 -33.769531 16.78125 -34.234375 19.25 -34.234375 C 22.039062 -34.234375 24.460938 -33.726562 26.515625 -32.71875 C 28.566406 -31.71875 30.269531 -30.367188 31.625 -28.671875 C 32.976562 -26.984375 33.976562 -25.039062 34.625 -22.84375 C 35.28125 -20.65625 35.609375 -18.367188 35.609375 -15.984375 C 35.609375 -15.609375 35.597656 -15.210938 35.578125 -14.796875 C 35.554688 -14.378906 35.523438 -13.941406 35.484375 -13.484375 L 12.09375 -13.484375 C 12.550781 -11.304688 13.5 -9.660156 14.9375 -8.546875 C 16.382812 -7.441406 18.175781 -6.890625 20.3125 -6.890625 C 21.894531 -6.890625 23.3125 -7.160156 24.5625 -7.703125 C 25.820312 -8.253906 27.117188 -9.132812 28.453125 -10.34375 L 33.90625 -5.515625 C 32.320312 -3.546875 30.398438 -2.007812 28.140625 -0.90625 C 25.890625 0.195312 23.238281 0.75 20.1875 0.75 Z M 26.328125 -19.4375 C 26.035156 -21.5625 25.28125 -23.28125 24.0625 -24.59375 C 22.851562 -25.914062 21.25 -26.578125 19.25 -26.578125 C 17.238281 -26.578125 15.613281 -25.925781 14.375 -24.625 C 13.144531 -23.332031 12.34375 -21.601562 11.96875 -19.4375 Z M 26.328125 -19.4375 "/></g></g></g><g fill="#004aad" fill-opacity="1"><g transform="translate(226.494813, 316.98214)"><g><path d="M 4.703125 -45.765625 L 14.234375 -45.765625 L 14.234375 0 L 4.703125 0 Z M 4.703125 -45.765625 "/></g></g></g><g fill="#004aad" fill-opacity="1"><g transform="translate(245.425979, 316.98214)"><g><path d="M 15.421875 0.625 C 11.785156 0.625 8.972656 -0.476562 6.984375 -2.6875 C 5.003906 -4.90625 4.015625 -7.957031 4.015625 -11.84375 L 4.015625 -33.59375 L 13.546875 -33.59375 L 13.546875 -14.859375 C 13.546875 -12.597656 14.046875 -10.894531 15.046875 -9.75 C 16.046875 -8.601562 17.46875 -8.03125 19.3125 -8.03125 C 21.144531 -8.03125 22.59375 -8.601562 23.65625 -9.75 C 24.726562 -10.894531 25.265625 -12.597656 25.265625 -14.859375 L 25.265625 -33.59375 L 34.796875 -33.59375 L 34.796875 0 L 25.265625 0 L 25.265625 -4.765625 C 24.722656 -4.054688 24.125 -3.375 23.46875 -2.71875 C 22.820312 -2.070312 22.101562 -1.5 21.3125 -1 C 20.519531 -0.5 19.640625 -0.101562 18.671875 0.1875 C 17.710938 0.476562 16.628906 0.625 15.421875 0.625 Z M 15.421875 0.625 "/></g></g></g><g fill="#004aad" fill-opacity="1"><g transform="translate(284.479347, 316.98214)"><g><path d="M 18.375 -23.765625 L 24.703125 -33.59375 L 34.671875 -33.59375 L 23.3125 -17.171875 L 35.171875 0 L 24.953125 0 L 18.171875 -10.46875 L 11.40625 0 L 1.4375 0 L 13.234375 -17.046875 L 1.875 -33.59375 L 12.09375 -33.59375 Z M 18.375 -23.765625 "/></g></g></g><g fill="#004aad" fill-opacity="1"><g transform="translate(321.087952, 316.98214)"><g><path d="M 26.328125 -33.59375 L 36.234375 -33.59375 L 23.3125 0.8125 C 22.6875 2.53125 22.019531 3.984375 21.3125 5.171875 C 20.601562 6.359375 19.816406 7.328125 18.953125 8.078125 C 18.097656 8.835938 17.128906 9.382812 16.046875 9.71875 C 14.960938 10.050781 13.707031 10.21875 12.28125 10.21875 C 10.53125 10.21875 8.984375 10.007812 7.640625 9.59375 C 6.304688 9.175781 5.035156 8.613281 3.828125 7.90625 L 7.015625 1 C 7.648438 1.375 8.332031 1.6875 9.0625 1.9375 C 9.789062 2.1875 10.46875 2.3125 11.09375 2.3125 C 11.925781 2.3125 12.582031 2.15625 13.0625 1.84375 C 13.550781 1.53125 14.003906 0.957031 14.421875 0.125 L 1.25 -33.59375 L 11.34375 -33.59375 L 19 -10.71875 Z M 26.328125 -33.59375 "/></g></g></g></svg>